<?xml version="1.0" encoding="UTF-8"?>
<svg width="700pt" height="700pt" version="1.1" viewBox="0 0 700 700" xmlns="http://www.w3.org/2000/svg" xmlns:xlink="http://www.w3.org/1999/xlink">
 <defs>
  <symbol id="s" overflow="visible">
   <path d="m4.8906-0.29688c-0.25 0.13672-0.51562 0.23438-0.79688 0.29688-0.27344 0.070312-0.55469 0.10938-0.84375 0.10938-0.88672 0-1.5898-0.24219-2.1094-0.73438-0.52344-0.5-0.78125-1.1758-0.78125-2.0312 0-0.85156 0.25781-1.5234 0.78125-2.0156 0.51953-0.5 1.2227-0.75 2.1094-0.75 0.28906 0 0.57031 0.039063 0.84375 0.10938 0.28125 0.0625 0.54688 0.16406 0.79688 0.29688v1.0938c-0.26172-0.16406-0.51562-0.28906-0.76562-0.375-0.24219-0.082031-0.49609-0.125-0.76562-0.125-0.49219 0-0.875 0.15625-1.1562 0.46875s-0.42188 0.74609-0.42188 1.2969c0 0.55469 0.14062 0.98438 0.42188 1.2969s0.66406 0.46875 1.1562 0.46875c0.26953 0 0.52344-0.039063 0.76562-0.125 0.25-0.082031 0.50391-0.20703 0.76562-0.375z"/>
  </symbol>
  <symbol id="d" overflow="visible">
   <path d="m3.5781-2.9062c-0.11719-0.050781-0.23047-0.085938-0.34375-0.10938-0.10547-0.03125-0.21484-0.046875-0.32812-0.046875-0.32422 0-0.57422 0.10938-0.75 0.32812-0.17969 0.21094-0.26562 0.50781-0.26562 0.89062v1.8438h-1.2812v-3.9844h1.2812v0.65625c0.16406-0.26953 0.35156-0.46094 0.5625-0.57812 0.20703-0.125 0.46094-0.1875 0.76562-0.1875 0.039062 0 0.085938 0.007812 0.14062 0.015625 0.050781 0 0.125 0.007813 0.21875 0.015625z"/>
  </symbol>
  <symbol id="a" overflow="visible">
   <path d="m4.5938-2v0.35938h-2.9844c0.03125 0.30469 0.14062 0.52734 0.32812 0.67188 0.1875 0.14844 0.44531 0.21875 0.78125 0.21875 0.26953 0 0.54688-0.035156 0.82812-0.10938 0.28125-0.082031 0.56641-0.20312 0.85938-0.35938v0.96875c-0.30469 0.11719-0.60547 0.20312-0.90625 0.26562-0.30469 0.0625-0.60547 0.09375-0.90625 0.09375-0.71875 0-1.2812-0.17969-1.6875-0.54688-0.39844-0.375-0.59375-0.89062-0.59375-1.5469s0.19531-1.1719 0.59375-1.5469c0.39453-0.375 0.9375-0.5625 1.625-0.5625 0.625 0 1.125 0.19531 1.5 0.57812 0.375 0.375 0.5625 0.88281 0.5625 1.5156zm-1.3125-0.4375c0-0.23828-0.074219-0.42969-0.21875-0.57812-0.13672-0.14453-0.32031-0.21875-0.54688-0.21875-0.24219 0-0.4375 0.070313-0.59375 0.20312-0.15625 0.13672-0.25781 0.33594-0.29688 0.59375z"/>
  </symbol>
  <symbol id="l" overflow="visible">
   <path d="m2.4062-1.7969c-0.27344 0-0.47656 0.046875-0.60938 0.14062-0.13672 0.085938-0.20312 0.21484-0.20312 0.39062 0 0.16797 0.050781 0.29688 0.15625 0.39062 0.11328 0.085938 0.26953 0.125 0.46875 0.125 0.23828 0 0.4375-0.082031 0.59375-0.25 0.16406-0.17578 0.25-0.39453 0.25-0.65625v-0.14062zm1.9375-0.48438v2.2812h-1.2812v-0.59375c-0.16797 0.24219-0.35938 0.41797-0.57812 0.53125-0.21094 0.11328-0.46875 0.17188-0.78125 0.17188-0.40625 0-0.74219-0.11719-1-0.35938-0.26172-0.25-0.39062-0.56641-0.39062-0.95312 0-0.46875 0.16016-0.80469 0.48438-1.0156 0.32031-0.21875 0.82812-0.32812 1.5156-0.32812h0.75v-0.10938c0-0.19531-0.078125-0.34375-0.23438-0.4375s-0.40625-0.14062-0.75-0.14062c-0.27344 0-0.52734 0.027344-0.76562 0.078125-0.23047 0.054688-0.44922 0.13672-0.65625 0.25v-0.98438c0.28125-0.0625 0.55469-0.10938 0.82812-0.14062 0.28125-0.039062 0.55469-0.0625 0.82812-0.0625 0.71875 0 1.2344 0.14844 1.5469 0.4375 0.32031 0.28125 0.48438 0.74219 0.48438 1.375z"/>
  </symbol>
  <symbol id="c" overflow="visible">
   <path d="m2-5.125v1.1406h1.3281v0.90625h-1.3281v1.6875c0 0.1875 0.035156 0.32031 0.10938 0.39062 0.082031 0.0625 0.22656 0.09375 0.4375 0.09375h0.65625v0.90625h-1.0938c-0.5 0-0.85547-0.10156-1.0625-0.3125-0.21094-0.20703-0.3125-0.56641-0.3125-1.0781v-1.6875h-0.64062v-0.90625h0.64062v-1.1406z"/>
  </symbol>
  <symbol id="k" overflow="visible">
   <path d="m3.3281-3.4062v-2.1406h1.2812v5.5469h-1.2812v-0.57812c-0.17969 0.24219-0.37109 0.41797-0.57812 0.53125-0.21094 0.10156-0.45312 0.15625-0.73438 0.15625-0.49219 0-0.89844-0.19141-1.2188-0.57812-0.3125-0.39453-0.46875-0.89844-0.46875-1.5156 0-0.625 0.15625-1.1289 0.46875-1.5156 0.32031-0.39453 0.72656-0.59375 1.2188-0.59375 0.26953 0 0.50781 0.058594 0.71875 0.17188 0.21875 0.11719 0.41406 0.28906 0.59375 0.51562zm-0.84375 2.5781c0.26953 0 0.47656-0.097656 0.625-0.29688 0.14453-0.19531 0.21875-0.48438 0.21875-0.85938 0-0.38281-0.074219-0.67578-0.21875-0.875-0.14844-0.19531-0.35547-0.29688-0.625-0.29688-0.27344 0-0.48047 0.10156-0.625 0.29688-0.13672 0.19922-0.20312 0.49219-0.20312 0.875 0 0.375 0.066406 0.66406 0.20312 0.85938 0.14453 0.19922 0.35156 0.29688 0.625 0.29688z"/>
  </symbol>
  <symbol id="j" overflow="visible">
   <path d="m2.7344-0.82812c0.26953 0 0.47656-0.097656 0.625-0.29688 0.14453-0.19531 0.21875-0.48438 0.21875-0.85938 0-0.38281-0.074219-0.67578-0.21875-0.875-0.14844-0.19531-0.35547-0.29688-0.625-0.29688-0.27344 0-0.48047 0.10156-0.625 0.29688-0.14844 0.19922-0.21875 0.49219-0.21875 0.875 0 0.375 0.070313 0.66406 0.21875 0.85938 0.14453 0.19922 0.35156 0.29688 0.625 0.29688zm-0.84375-2.5781c0.17578-0.22656 0.36719-0.39844 0.57812-0.51562 0.21875-0.11328 0.46094-0.17188 0.73438-0.17188 0.5 0 0.90625 0.19922 1.2188 0.59375 0.3125 0.38672 0.46875 0.89062 0.46875 1.5156 0 0.61719-0.15625 1.1211-0.46875 1.5156-0.3125 0.38672-0.71875 0.57812-1.2188 0.57812-0.27344 0-0.51562-0.058594-0.73438-0.17188-0.21094-0.11328-0.40234-0.28516-0.57812-0.51562v0.57812h-1.2812v-5.5469h1.2812z"/>
  </symbol>
  <symbol id="i" overflow="visible">
   <path d="m0.09375-3.9844h1.2656l1.0781 2.7031 0.90625-2.7031h1.2812l-1.6719 4.3594c-0.17969 0.44531-0.38281 0.75781-0.60938 0.9375-0.21875 0.17578-0.51172 0.26562-0.875 0.26562h-0.73438v-0.84375h0.39062c0.21875 0 0.375-0.039063 0.46875-0.10938 0.10156-0.0625 0.17969-0.18359 0.23438-0.35938l0.03125-0.10938z"/>
  </symbol>
  <symbol id="h" overflow="visible">
   <path d="m0.60938-3.9844h1.2812v3.9844h-1.2812zm0-1.5625h1.2812v1.0469h-1.2812z"/>
  </symbol>
  <symbol id="g" overflow="visible">
   <path d="m3.8438-3.8594v1.0312c-0.17969-0.11328-0.35547-0.19531-0.53125-0.25-0.17969-0.0625-0.35938-0.09375-0.54688-0.09375-0.35547 0-0.63281 0.10547-0.82812 0.3125-0.19922 0.21094-0.29688 0.5-0.29688 0.875 0 0.36719 0.097656 0.65234 0.29688 0.85938 0.19531 0.21094 0.47266 0.3125 0.82812 0.3125 0.20703 0 0.39844-0.023438 0.57812-0.078125 0.17578-0.0625 0.34375-0.14844 0.5-0.26562v1.0312c-0.21094 0.085938-0.41797 0.14062-0.625 0.17188-0.19922 0.039062-0.40234 0.0625-0.60938 0.0625-0.71875 0-1.2812-0.17969-1.6875-0.54688-0.40625-0.375-0.60938-0.89062-0.60938-1.5469 0-0.66406 0.20312-1.1797 0.60938-1.5469 0.40625-0.375 0.96875-0.5625 1.6875-0.5625 0.20703 0 0.41016 0.023438 0.60938 0.0625 0.20703 0.042969 0.41406 0.10156 0.625 0.17188z"/>
  </symbol>
  <symbol id="b" overflow="visible">
   <path d="m2.5156-3.1719c-0.28125 0-0.5 0.10547-0.65625 0.3125-0.14844 0.19922-0.21875 0.49219-0.21875 0.875 0 0.375 0.070313 0.66797 0.21875 0.875 0.15625 0.19922 0.375 0.29688 0.65625 0.29688 0.26953 0 0.47656-0.097656 0.625-0.29688 0.15625-0.20703 0.23438-0.5 0.23438-0.875 0-0.38281-0.078125-0.67578-0.23438-0.875-0.14844-0.20703-0.35547-0.3125-0.625-0.3125zm0-0.92188c0.6875 0 1.2227 0.1875 1.6094 0.5625 0.38281 0.375 0.57812 0.89062 0.57812 1.5469 0 0.64844-0.19531 1.1562-0.57812 1.5312-0.38672 0.375-0.92188 0.5625-1.6094 0.5625s-1.2305-0.1875-1.625-0.5625c-0.38672-0.375-0.57812-0.88281-0.57812-1.5312 0-0.65625 0.19141-1.1719 0.57812-1.5469 0.39453-0.375 0.9375-0.5625 1.625-0.5625z"/>
  </symbol>
  <symbol id="f" overflow="visible">
   <path d="m4.625-2.4375v2.4375h-1.2812v-1.8594c0-0.34375-0.011719-0.57812-0.03125-0.70312-0.011719-0.13281-0.039062-0.23438-0.078125-0.29688-0.054687-0.082031-0.12109-0.14453-0.20312-0.1875-0.085938-0.050781-0.17969-0.078125-0.28125-0.078125-0.27344 0-0.48438 0.10547-0.64062 0.3125-0.14844 0.19922-0.21875 0.48047-0.21875 0.84375v1.9688h-1.2812v-3.9844h1.2812v0.57812c0.1875-0.22656 0.39062-0.39844 0.60938-0.51562 0.21875-0.11328 0.45703-0.17188 0.71875-0.17188 0.45703 0 0.80469 0.14844 1.0469 0.4375 0.23828 0.28125 0.35938 0.6875 0.35938 1.2188z"/>
  </symbol>
  <symbol id="e" overflow="visible">
   <path d="m0.5625-1.5469v-2.4375h1.2969v0.39062c0 0.21875-0.007813 0.49609-0.015625 0.82812v0.64062c0 0.32422 0.003906 0.55859 0.015625 0.70312 0.019531 0.13672 0.050781 0.23438 0.09375 0.29688 0.050781 0.085938 0.11719 0.15234 0.20312 0.20312 0.082031 0.042969 0.17969 0.0625 0.29688 0.0625 0.25781 0 0.46875-0.097656 0.625-0.29688 0.15625-0.20703 0.23438-0.49219 0.23438-0.85938v-1.9688h1.2656v3.9844h-1.2656v-0.57812c-0.19922 0.23047-0.40625 0.40234-0.625 0.51562-0.21094 0.11328-0.44531 0.17188-0.70312 0.17188-0.46094 0-0.8125-0.14062-1.0625-0.42188-0.24219-0.28906-0.35938-0.70312-0.35938-1.2344z"/>
  </symbol>
  <symbol id="r" overflow="visible">
   <path d="m3.2344-5.5469v0.84375h-0.70312c-0.17969 0-0.30469 0.03125-0.375 0.09375-0.074219 0.0625-0.10938 0.17969-0.10938 0.34375v0.28125h1.0938v0.90625h-1.0938v3.0781h-1.2812v-3.0781h-0.625v-0.90625h0.625v-0.28125c0-0.4375 0.11719-0.75781 0.35938-0.96875 0.25-0.20703 0.62891-0.3125 1.1406-0.3125z"/>
  </symbol>
  <symbol id="q" overflow="visible">
   <path d="m4.3125-3.3281c0.15625-0.25 0.34375-0.4375 0.5625-0.5625 0.22656-0.13281 0.47656-0.20312 0.75-0.20312 0.45703 0 0.80469 0.14844 1.0469 0.4375 0.23828 0.28125 0.35938 0.6875 0.35938 1.2188v2.4375h-1.2812v-2.0781-0.09375-0.14062c0-0.28906-0.042969-0.5-0.125-0.625-0.085938-0.125-0.21875-0.1875-0.40625-0.1875-0.24219 0-0.42969 0.10156-0.5625 0.29688-0.125 0.19922-0.19531 0.49219-0.20312 0.875v1.9531h-1.2812v-2.0781c0-0.44531-0.039063-0.73438-0.10938-0.85938-0.074219-0.125-0.21094-0.1875-0.40625-0.1875-0.25 0-0.44531 0.10547-0.57812 0.3125-0.125 0.19922-0.1875 0.48047-0.1875 0.84375v1.9688h-1.2812v-3.9844h1.2812v0.57812c0.15625-0.22656 0.33203-0.39844 0.53125-0.51562 0.20703-0.11328 0.42969-0.17188 0.67188-0.17188 0.28125 0 0.52344 0.070312 0.73438 0.20312 0.20703 0.13672 0.36719 0.32422 0.48438 0.5625z"/>
  </symbol>
  <symbol id="p" overflow="visible">
   <path d="m4.625-2.4375v2.4375h-1.2812v-1.8594c0-0.34375-0.011719-0.57812-0.03125-0.70312-0.011719-0.13281-0.039062-0.23438-0.078125-0.29688-0.054687-0.082031-0.12109-0.14453-0.20312-0.1875-0.085938-0.050781-0.17969-0.078125-0.28125-0.078125-0.27344 0-0.48438 0.10547-0.64062 0.3125-0.14844 0.19922-0.21875 0.48047-0.21875 0.84375v1.9688h-1.2812v-5.5469h1.2812v2.1406c0.1875-0.22656 0.39062-0.39844 0.60938-0.51562 0.21875-0.11328 0.45703-0.17188 0.71875-0.17188 0.45703 0 0.80469 0.14844 1.0469 0.4375 0.23828 0.28125 0.35938 0.6875 0.35938 1.2188z"/>
  </symbol>
  <symbol id="o" overflow="visible">
   <path d="m0.67188-5.3125h1.5312l1.9375 3.6406v-3.6406h1.2969v5.3125h-1.5312l-1.9375-3.6562v3.6562h-1.2969z"/>
  </symbol>
  <symbol id="n" overflow="visible">
   <path d="m0.67188-5.3125h2.2812c0.67578 0 1.1914 0.15234 1.5469 0.45312 0.36328 0.29297 0.54688 0.71875 0.54688 1.2812 0 0.55469-0.18359 0.98047-0.54688 1.2812-0.35547 0.30469-0.87109 0.45312-1.5469 0.45312h-0.90625v1.8438h-1.375zm1.375 0.98438v1.4844h0.75c0.26953 0 0.47656-0.0625 0.625-0.1875 0.14453-0.13281 0.21875-0.31641 0.21875-0.54688 0-0.23828-0.074219-0.42188-0.21875-0.54688-0.14844-0.13281-0.35547-0.20312-0.625-0.20312z"/>
  </symbol>
  <symbol id="m" overflow="visible">
   <path d="m0.60938-3.9844h1.2812v3.9062c0 0.53906-0.13281 0.95312-0.39062 1.2344-0.25 0.28125-0.62109 0.42188-1.1094 0.42188h-0.64062v-0.84375h0.23438c0.23828 0 0.39844-0.058594 0.48438-0.17188 0.09375-0.10547 0.14062-0.32031 0.14062-0.64062zm0-1.5625h1.2812v1.0469h-1.2812z"/>
  </symbol>
 </defs>
 <g>
  <path d="m319.31 1.668c-71.469 8.3125-137.83 43.758-183.48 98.305-71.031 84.742-85.762 201.57-38.215 300.9 28.148 58.488 73.074 103.41 131.41 131.41 99.473 47.695 216.3 32.965 301.05-38.066 62.863-52.508 99.91-132.14 99.91-214.12 0-81.969-37.047-161.61-99.91-214.12-58.344-49.008-136.67-72.781-210.76-64.32zm66.363 73.656c8.75 0.875 37.484 8.3125 49.59 12.98 20.129 7.5859 37.191 17.211 60.969 34.277l7 4.9609-152.86 152.86c-142.21 142.21-152.86 152.57-155.34 150.52-1.3125-1.3125-5.25-6.7109-8.4609-12.105-3.3555-5.25-8.6055-13.855-11.961-19.105-22.316-35.734-33.547-84.887-29.316-128.35 2.918-31.797 8.8984-52.801 22.172-78.762 9.4805-18.668 13.273-24.504 24.359-37.922 16.918-20.273 35.879-37.191 54.551-48.426 43.172-25.816 89.262-36.027 139.29-30.922zm158.25 151.54c0 0.58203-0.875 2.625-2.043 4.8125-3.793 7.5859-15.898 52.215-18.379 68.113-4.082 26.547-9.1875 39.234-20.273 50.32-11.961 11.961-26.254 17.504-45.359 17.504h-10.938l-121.06 121.06-45.219-45.219 121.79-121.79v-10.211c0-18.379 5.6875-32.816 17.504-44.633 9.043-9.043 18.523-13.711 33.691-16.629 32.672-6.2734 61.988-13.711 77.156-19.543 11.812-4.5234 13.129-4.9609 13.129-3.793z"/>
  <path d="m368.03 112.95c-21.879 5.3984-35.734 27.566-30.777 49.152 3.793 16.043 15.461 27.711 31.504 31.504 22.461 5.25 45.07-9.7734 49.59-33.109 5.6875-28.879-21.73-54.695-50.32-47.547z"/>
  <path d="m248.43 150.88c-21.879 5.3984-35.734 27.566-30.777 49.152 3.793 16.043 15.461 27.711 31.504 31.504 22.461 5.25 45.07-9.7734 49.59-33.109 5.6875-28.879-21.73-54.695-50.32-47.547z"/>
  <path d="m209.04 270.48c-21.879 5.3984-35.734 27.566-30.777 49.152 3.793 16.043 15.461 27.711 31.504 31.504 22.461 5.25 45.07-9.7734 49.59-33.109 5.6875-28.879-21.73-54.695-50.32-47.547z"/>

 </g>
</svg>
