<svg width="49" height="47" viewBox="0 0 49 47" fill="none" xmlns="http://www.w3.org/2000/svg">
<path d="M17.0528 46.6615L12.8463 39.5668L4.84048 37.8415L5.62552 29.5837L0.226929 23.4L5.62552 17.2163L4.84048 8.95843L12.8463 7.23317L17.0528 0.138428L24.5546 3.30783L32.0565 0.138428L36.2629 7.23317L44.2688 8.95843L43.4837 17.2163L48.8823 23.4L43.4837 29.5837L44.2688 37.8415L36.2629 39.5668L32.0565 46.6615L24.5546 43.4921L17.0528 46.6615ZM18.1286 43.434L24.5546 40.7589L31.0097 43.434L34.6346 37.386L41.5646 35.8449L40.9346 28.692L45.5966 23.4L40.9346 18.0789L41.5646 10.926L34.6346 9.41398L30.9806 3.36598L24.5546 6.04109L18.0995 3.36598L14.4746 9.41398L7.54463 10.926L8.17463 18.0789L3.51263 23.4L8.17463 28.692L7.54463 35.874L14.4746 37.386L18.1286 43.434ZM21.9086 30.6014L34.402 18.108L32.6186 16.2955L21.9086 27.0055L16.4906 21.6166L14.7072 23.4L21.9086 30.6014Z" fill="#16C513"/>
</svg>
