<?xml version="1.0" encoding="UTF-8"?>
<svg width="700pt" height="700pt" version="1.1" viewBox="0 0 700 700" xmlns="http://www.w3.org/2000/svg" xmlns:xlink="http://www.w3.org/1999/xlink">
 <defs>
  <symbol id="f" overflow="visible">
   <path d="m39.078-2.3281c-2.0117 1.043-4.1094 1.8281-6.2969 2.3594s-4.4648 0.79688-6.8281 0.79688c-7.0859 0-12.699-1.9766-16.844-5.9375-4.1367-3.957-6.2031-9.3281-6.2031-16.109 0-6.7891 2.0664-12.164 6.2031-16.125 4.1445-3.9688 9.7578-5.9531 16.844-5.9531 2.3633 0 4.6406 0.26562 6.8281 0.79688s4.2852 1.3242 6.2969 2.375v8.7969c-2.0312-1.3828-4.0391-2.3984-6.0156-3.0469-1.9688-0.64453-4.0469-0.96875-6.2344-0.96875-3.9062 0-6.9844 1.2578-9.2344 3.7656-2.2422 2.5-3.3594 5.9531-3.3594 10.359 0 4.3867 1.1172 7.8359 3.3594 10.344 2.25 2.5 5.3281 3.75 9.2344 3.75 2.1875 0 4.2656-0.32031 6.2344-0.96875 1.9766-0.64453 3.9844-1.6602 6.0156-3.0469z"/>
  </symbol>
  <symbol id="e" overflow="visible">
   <path d="m16.031-40.953v9.0625h10.516v7.2812h-10.516v13.531c0 1.4805 0.28906 2.4805 0.875 3 0.59375 0.52344 1.7656 0.78125 3.5156 0.78125h5.2344v7.2969h-8.7344c-4.0312 0-6.8867-0.83594-8.5625-2.5156-1.6797-1.6875-2.5156-4.5391-2.5156-8.5625v-13.531h-5.0781v-7.2812h5.0781v-9.0625z"/>
  </symbol>
  <symbol id="d" overflow="visible">
   <path d="m26.594-27.234v-17.078h10.266v44.312h-10.266v-4.6094c-1.3984 1.875-2.9453 3.25-4.6406 4.125-1.6875 0.875-3.6406 1.3125-5.8594 1.3125-3.9297 0-7.1562-1.5625-9.6875-4.6875-2.5234-3.125-3.7812-7.1445-3.7812-12.062 0-4.9141 1.2578-8.9375 3.7812-12.062 2.5312-3.125 5.7578-4.6875 9.6875-4.6875 2.1953 0 4.1445 0.44531 5.8438 1.3281 1.707 0.88672 3.2578 2.2578 4.6562 4.1094zm-6.7188 20.656c2.1875 0 3.8516-0.79688 5-2.3906 1.1445-1.5938 1.7188-3.9102 1.7188-6.9531 0-3.0391-0.57422-5.3594-1.7188-6.9531-1.1484-1.5938-2.8125-2.3906-5-2.3906-2.168 0-3.8242 0.79688-4.9688 2.3906-1.1484 1.5938-1.7188 3.9141-1.7188 6.9531 0 3.043 0.57031 5.3594 1.7188 6.9531 1.1445 1.5938 2.8008 2.3906 4.9688 2.3906z"/>
  </symbol>
  <symbol id="c" overflow="visible">
   <path d="m21.875-6.5781c2.1758 0 3.8359-0.79688 4.9844-2.3906 1.1562-1.5938 1.7344-3.9102 1.7344-6.9531 0-3.0391-0.57812-5.3594-1.7344-6.9531-1.1484-1.5938-2.8086-2.3906-4.9844-2.3906-2.1875 0-3.8672 0.80469-5.0312 2.4062-1.168 1.6055-1.75 3.918-1.75 6.9375 0 3.0234 0.58203 5.3359 1.75 6.9375 1.1641 1.6055 2.8438 2.4062 5.0312 2.4062zm-6.7812-20.656c1.4062-1.8516 2.9609-3.2227 4.6719-4.1094 1.707-0.88281 3.6719-1.3281 5.8906-1.3281 3.9375 0 7.1641 1.5625 9.6875 4.6875 2.5195 3.125 3.7812 7.1484 3.7812 12.062 0 4.918-1.2617 8.9375-3.7812 12.062-2.5234 3.125-5.75 4.6875-9.6875 4.6875-2.2188 0-4.1836-0.44531-5.8906-1.3281-1.7109-0.88281-3.2656-2.2539-4.6719-4.1094v4.6094h-10.188v-44.312h10.188z"/>
  </symbol>
  <symbol id="b" overflow="visible">
   <path d="m5.3594-42.516h10.953v15.516l15.812-15.516h12.734l-20.484 20.125 22.594 22.391h-13.734l-16.922-16.75v16.75h-10.953z"/>
  </symbol>
  <symbol id="a" overflow="visible">
   <path d="m20.938-23.672c2.2891 0 3.9375-0.42578 4.9375-1.2812 1-0.85156 1.5-2.2578 1.5-4.2188 0-1.9258-0.5-3.3047-1.5-4.1406-1-0.84375-2.6484-1.2656-4.9375-1.2656h-4.625v10.906zm-4.625 7.5781v16.094h-10.953v-42.516h16.734c5.6016 0 9.707 0.94531 12.312 2.8281 2.6133 1.875 3.9219 4.8438 3.9219 8.9062 0 2.8047-0.67969 5.1094-2.0312 6.9219-1.3555 1.8047-3.4023 3.1328-6.1406 3.9844 1.5 0.34375 2.8438 1.1211 4.0312 2.3281 1.1875 1.1992 2.3906 3.0234 3.6094 5.4688l5.9531 12.078h-11.688l-5.1719-10.562c-1.0547-2.125-2.1172-3.5781-3.1875-4.3594-1.0742-0.78125-2.5-1.1719-4.2812-1.1719z"/>
  </symbol>
 </defs>
 <g>
  <path d="m383.47 131.21c0 14.852-15.34 23.414-30.203 28.141 0 0-41.812 10.805-41.812 46.41s33.391 44.262 39.422 47.672l-0.003906-0.003906c7.8594 3.9531 14.16 10.434 17.898 18.398 20.16 36.879 29.297 114.85 34.383 149.64h-0.003906c0.70312 4.7578 3.0312 9.125 6.5898 12.355 3.5586 3.2344 8.1289 5.1328 12.93 5.3789l48.895 2.5312c3.543 0.20312 6.9648-1.3164 9.1953-4.0742 2.2344-2.7578 3-6.4219 2.0625-9.8438-12.543-45.793-50.168-184.96-55.336-223.41-3.4531-18.699-4.5664-37.758-3.3125-56.734 0.73438-8.2734 3.6289-22.902 4.1289-32.668 2.7891-53.668-21-98.699-57.168-106.17l-0.95312 22.73 13.535 7.3867-4.2344 17.324 15.168 8.7734-8.3867 20.547 12.832 17.5-0.003906-0.003906c-8.4688 7.1484-14.023 17.152-15.621 28.117zm-33.473 87.641c-5.2969 0.003906-10.07-3.1836-12.102-8.0742s-0.91406-10.523 2.8281-14.27c3.7461-3.7461 9.375-4.8672 14.27-2.8398 4.8906 2.0234 8.082 6.7969 8.082 12.094-0.007813 7.2227-5.8555 13.078-13.078 13.09z"/>
  <path d="m483.22 542.5h-231.89c-9.2227 0-17.742-4.918-22.352-12.902s-4.6094-17.824 0-25.809c4.6094-7.9844 13.129-12.902 22.352-12.902h160.5c9.668 0.019531 19.066-3.1719 26.723-9.0664 7.6562-5.8984 13.141-14.168 15.594-23.52l-18.188-0.96875c-1.0156 2.4727-2.3984 4.7773-4.0977 6.8398-4.9727 5.8789-12.305 9.2461-20.008 9.1914h-160.52c-15.473 0-29.77 8.2539-37.504 21.652-7.7383 13.398-7.7383 29.91 0 43.309 7.7344 13.398 22.031 21.652 37.504 21.652h231.89c4.832 0 8.75-3.918 8.75-8.75 0-4.832-3.918-8.75-8.75-8.75z"/>
  <path d="m228.43 441.68 48.895-2.5312c4.8008-0.24609 9.3711-2.1445 12.93-5.3789 3.5586-3.2305 5.8867-7.5977 6.5898-12.355 5.0859-34.789 14.223-112.76 34.383-149.64h-0.003907c1.168-2.1445 2.4492-4.2227 3.8398-6.2266-12.074-4.6602-22.461-12.863-29.789-23.535-7.3281-10.668-11.262-23.305-11.277-36.246 0.21094-11.441 3.5469-22.609 9.6445-32.293 6.1016-9.6836 14.73-17.512 24.957-22.645-7.082-4.0664-11.609-11.457-12.016-19.613-1.6055-10.988-7.1914-21.004-15.691-28.152l12.832-17.5-8.3867-20.547 15.168-8.7734-4.2227-17.289 13.535-7.3867-0.97266-22.816c-36.168 7.4414-59.941 52.5-57.168 106.17 0.5 9.8242 3.3945 24.5 4.1289 32.727l0.003906-0.003906c1.2539 18.977 0.14062 38.035-3.3125 56.734-5.1094 38.5-42.793 177.61-55.336 223.41-0.92969 3.4219-0.15625 7.082 2.0781 9.832 2.2305 2.7539 5.6523 4.2656 9.1914 4.0625z"/>

 </g>
</svg>
