<?xml version="1.0" encoding="UTF-8"?>
<svg width="700pt" height="700pt" version="1.1" viewBox="0 0 700 700" xmlns="http://www.w3.org/2000/svg" xmlns:xlink="http://www.w3.org/1999/xlink">
 <defs>
  <symbol id="h" overflow="visible">
   <path d="m18.766-1.125c-0.96875 0.5-1.9805 0.875-3.0312 1.125-1.043 0.25781-2.1367 0.39062-3.2812 0.39062-3.3984 0-6.0898-0.94531-8.0781-2.8438-1.9922-1.9062-2.9844-4.4844-2.9844-7.7344 0-3.2578 0.99219-5.8359 2.9844-7.7344 1.9883-1.9062 4.6797-2.8594 8.0781-2.8594 1.1445 0 2.2383 0.13281 3.2812 0.39062 1.0508 0.25 2.0625 0.625 3.0312 1.125v4.2188c-0.98047-0.65625-1.9453-1.1406-2.8906-1.4531-0.94922-0.3125-1.9492-0.46875-3-0.46875-1.875 0-3.3516 0.60547-4.4219 1.8125-1.0742 1.1992-1.6094 2.8555-1.6094 4.9688 0 2.1055 0.53516 3.7617 1.6094 4.9688 1.0703 1.1992 2.5469 1.7969 4.4219 1.7969 1.0508 0 2.0508-0.14844 3-0.45312 0.94531-0.3125 1.9102-0.80078 2.8906-1.4688z"/>
  </symbol>
  <symbol id="d" overflow="visible">
   <path d="m13.734-11.141c-0.4375-0.19531-0.87109-0.34375-1.2969-0.4375-0.41797-0.10156-0.83984-0.15625-1.2656-0.15625-1.2617 0-2.2305 0.40625-2.9062 1.2188-0.67969 0.80469-1.0156 1.9531-1.0156 3.4531v7.0625h-4.8906v-15.312h4.8906v2.5156c0.625-1 1.3438-1.7266 2.1562-2.1875 0.82031-0.46875 1.8008-0.70312 2.9375-0.70312 0.16406 0 0.34375 0.011719 0.53125 0.03125 0.19531 0.011719 0.47656 0.039062 0.84375 0.078125z"/>
  </symbol>
  <symbol id="c" overflow="visible">
   <path d="m17.641-7.7031v1.4062h-11.453c0.125 1.1484 0.53906 2.0078 1.25 2.5781 0.70703 0.57422 1.7031 0.85938 2.9844 0.85938 1.0312 0 2.082-0.14844 3.1562-0.45312 1.082-0.3125 2.1914-0.77344 3.3281-1.3906v3.7656c-1.1562 0.4375-2.3125 0.76562-3.4688 0.98438-1.1562 0.22656-2.3125 0.34375-3.4688 0.34375-2.7734 0-4.9297-0.70312-6.4688-2.1094-1.5312-1.4062-2.2969-3.3789-2.2969-5.9219 0-2.5 0.75391-4.4609 2.2656-5.8906 1.5078-1.4375 3.582-2.1562 6.2188-2.1562 2.4062 0 4.332 0.73047 5.7812 2.1875 1.4453 1.4492 2.1719 3.3828 2.1719 5.7969zm-5.0312-1.625c0-0.92578-0.27344-1.6719-0.8125-2.2344-0.54297-0.57031-1.25-0.85938-2.125-0.85938-0.94922 0-1.7188 0.26562-2.3125 0.79688s-0.96484 1.2969-1.1094 2.2969z"/>
  </symbol>
  <symbol id="e" overflow="visible">
   <path d="m9.2188-6.8906c-1.0234 0-1.793 0.17188-2.3125 0.51562-0.51172 0.34375-0.76562 0.85547-0.76562 1.5312 0 0.625 0.20703 1.1172 0.625 1.4688 0.41406 0.34375 0.98828 0.51562 1.7188 0.51562 0.92578 0 1.7031-0.32812 2.3281-0.98438 0.63281-0.66406 0.95312-1.4922 0.95312-2.4844v-0.5625zm7.4688-1.8438v8.7344h-4.9219v-2.2656c-0.65625 0.92969-1.3984 1.6055-2.2188 2.0312-0.82422 0.41406-1.8242 0.625-3 0.625-1.5859 0-2.8711-0.45703-3.8594-1.375-0.99219-0.92578-1.4844-2.1289-1.4844-3.6094 0-1.7891 0.61328-3.1016 1.8438-3.9375 1.2383-0.84375 3.1797-1.2656 5.8281-1.2656h2.8906v-0.39062c0-0.76953-0.30859-1.332-0.92188-1.6875-0.61719-0.36328-1.5703-0.54688-2.8594-0.54688-1.0547 0-2.0312 0.10547-2.9375 0.3125-0.89844 0.21094-1.7305 0.52344-2.5 0.9375v-3.7344c1.0391-0.25 2.0859-0.44141 3.1406-0.57812 1.0625-0.13281 2.125-0.20312 3.1875-0.20312 2.7578 0 4.75 0.54688 5.9688 1.6406 1.2266 1.0859 1.8438 2.8555 1.8438 5.3125z"/>
  </symbol>
  <symbol id="b" overflow="visible">
   <path d="m7.7031-19.656v4.3438h5.0469v3.5h-5.0469v6.5c0 0.71094 0.14062 1.1875 0.42188 1.4375s0.83594 0.375 1.6719 0.375h2.5156v3.5h-4.1875c-1.9375 0-3.3125-0.39844-4.125-1.2031-0.80469-0.8125-1.2031-2.1797-1.2031-4.1094v-6.5h-2.4219v-3.5h2.4219v-4.3438z"/>
  </symbol>
  <symbol id="l" overflow="visible">
   <path d="m12.766-13.078v-8.2031h4.9219v21.281h-4.9219v-2.2188c-0.66797 0.90625-1.4062 1.5703-2.2188 1.9844s-1.7578 0.625-2.8281 0.625c-1.8867 0-3.4336-0.75-4.6406-2.25-1.2109-1.5-1.8125-3.4258-1.8125-5.7812 0-2.3633 0.60156-4.2969 1.8125-5.7969 1.207-1.5 2.7539-2.25 4.6406-2.25 1.0625 0 2 0.21484 2.8125 0.64062 0.82031 0.42969 1.5664 1.0859 2.2344 1.9688zm-3.2188 9.9219c1.0391 0 1.8359-0.37891 2.3906-1.1406 0.55078-0.76953 0.82812-1.8828 0.82812-3.3438 0-1.457-0.27734-2.5664-0.82812-3.3281-0.55469-0.76953-1.3516-1.1562-2.3906-1.1562-1.043 0-1.8398 0.38672-2.3906 1.1562-0.55469 0.76172-0.82812 1.8711-0.82812 3.3281 0 1.4609 0.27344 2.5742 0.82812 3.3438 0.55078 0.76172 1.3477 1.1406 2.3906 1.1406z"/>
  </symbol>
  <symbol id="k" overflow="visible">
   <path d="m10.5-3.1562c1.0508 0 1.8516-0.37891 2.4062-1.1406 0.55078-0.76953 0.82812-1.8828 0.82812-3.3438 0-1.457-0.27734-2.5664-0.82812-3.3281-0.55469-0.76953-1.3555-1.1562-2.4062-1.1562-1.0547 0-1.8594 0.38672-2.4219 1.1562-0.55469 0.77344-0.82812 1.8828-0.82812 3.3281 0 1.4492 0.27344 2.5586 0.82812 3.3281 0.5625 0.77344 1.3672 1.1562 2.4219 1.1562zm-3.25-9.9219c0.67578-0.88281 1.4219-1.5391 2.2344-1.9688 0.82031-0.42578 1.7656-0.64062 2.8281-0.64062 1.8945 0 3.4453 0.75 4.6562 2.25 1.207 1.5 1.8125 3.4336 1.8125 5.7969 0 2.3555-0.60547 4.2812-1.8125 5.7812-1.2109 1.5-2.7617 2.25-4.6562 2.25-1.0625 0-2.0078-0.21094-2.8281-0.625-0.8125-0.42578-1.5586-1.0859-2.2344-1.9844v2.2188h-4.8906v-21.281h4.8906z"/>
  </symbol>
  <symbol id="j" overflow="visible">
   <path d="m0.34375-15.312h4.8906l4.125 10.391 3.5-10.391h4.8906l-6.4375 16.766c-0.64844 1.6953-1.4023 2.8828-2.2656 3.5625-0.86719 0.6875-2 1.0312-3.4062 1.0312h-2.8438v-3.2188h1.5312c0.83203 0 1.4375-0.13672 1.8125-0.40625 0.38281-0.26172 0.67969-0.73047 0.89062-1.4062l0.14062-0.42188z"/>
  </symbol>
  <symbol id="i" overflow="visible">
   <path d="m2.5781-20.406h14.203v3.9688h-8.9531v3.7969h8.4219v3.9844h-8.4219v8.6562h-5.25z"/>
  </symbol>
  <symbol id="g" overflow="visible">
   <path d="m17.75-9.3281v9.3281h-4.9219v-7.1406c0-1.3203-0.03125-2.2344-0.09375-2.7344s-0.16797-0.86719-0.3125-1.1094c-0.1875-0.3125-0.44922-0.55469-0.78125-0.73438-0.32422-0.17578-0.69531-0.26562-1.1094-0.26562-1.0234 0-1.8242 0.39844-2.4062 1.1875-0.58594 0.78125-0.875 1.8711-0.875 3.2656v7.5312h-4.8906v-15.312h4.8906v2.2344c0.73828-0.88281 1.5195-1.5391 2.3438-1.9688 0.83203-0.42578 1.75-0.64062 2.75-0.64062 1.7695 0 3.1133 0.54688 4.0312 1.6406 0.91406 1.0859 1.375 2.6562 1.375 4.7188z"/>
  </symbol>
  <symbol id="a" overflow="visible">
   <path d="m9.6406-12.188c-1.0859 0-1.9141 0.39062-2.4844 1.1719-0.57422 0.78125-0.85938 1.9062-0.85938 3.375s0.28516 2.5938 0.85938 3.375c0.57031 0.77344 1.3984 1.1562 2.4844 1.1562 1.0625 0 1.875-0.38281 2.4375-1.1562 0.57031-0.78125 0.85938-1.9062 0.85938-3.375s-0.28906-2.5938-0.85938-3.375c-0.5625-0.78125-1.375-1.1719-2.4375-1.1719zm0-3.5c2.6328 0 4.6914 0.71484 6.1719 2.1406 1.4766 1.418 2.2188 3.3867 2.2188 5.9062 0 2.5117-0.74219 4.4805-2.2188 5.9062-1.4805 1.418-3.5391 2.125-6.1719 2.125-2.6484 0-4.7148-0.70703-6.2031-2.125-1.4922-1.4258-2.2344-3.3945-2.2344-5.9062 0-2.5195 0.74219-4.4883 2.2344-5.9062 1.4883-1.4258 3.5547-2.1406 6.2031-2.1406z"/>
  </symbol>
  <symbol id="f" overflow="visible">
   <path d="m2.1875-5.9688v-9.3438h4.9219v1.5312c0 0.83594-0.007813 1.875-0.015625 3.125-0.011719 1.25-0.015625 2.0859-0.015625 2.5 0 1.2422 0.03125 2.1328 0.09375 2.6719 0.070313 0.54297 0.17969 0.93359 0.32812 1.1719 0.20703 0.32422 0.47266 0.57422 0.79688 0.75 0.32031 0.16797 0.69141 0.25 1.1094 0.25 1.0195 0 1.8203-0.39062 2.4062-1.1719 0.58203-0.78125 0.875-1.8672 0.875-3.2656v-7.5625h4.8906v15.312h-4.8906v-2.2188c-0.74219 0.89844-1.5234 1.5586-2.3438 1.9844-0.82422 0.41406-1.7344 0.625-2.7344 0.625-1.7617 0-3.1055-0.53906-4.0312-1.625-0.92969-1.082-1.3906-2.6602-1.3906-4.7344z"/>
  </symbol>
  <symbol id="s" overflow="visible">
   <path d="m12.422-21.281v3.2188h-2.7031c-0.6875 0-1.1719 0.125-1.4531 0.375-0.27344 0.25-0.40625 0.6875-0.40625 1.3125v1.0625h4.1875v3.5h-4.1875v11.812h-4.8906v-11.812h-2.4375v-3.5h2.4375v-1.0625c0-1.6641 0.46094-2.8984 1.3906-3.7031 0.92578-0.80078 2.3672-1.2031 4.3281-1.2031z"/>
  </symbol>
  <symbol id="r" overflow="visible">
   <path d="m16.547-12.766c0.61328-0.94531 1.3477-1.6719 2.2031-2.1719 0.85156-0.5 1.7891-0.75 2.8125-0.75 1.7578 0 3.0977 0.54688 4.0156 1.6406 0.92578 1.0859 1.3906 2.6562 1.3906 4.7188v9.3281h-4.9219v-7.9844-0.35938c0.007813-0.13281 0.015625-0.32031 0.015625-0.5625 0-1.082-0.16406-1.8633-0.48438-2.3438-0.3125-0.48828-0.82422-0.73438-1.5312-0.73438-0.92969 0-1.6484 0.38672-2.1562 1.1562-0.51172 0.76172-0.77344 1.8672-0.78125 3.3125v7.5156h-4.9219v-7.9844c0-1.6953-0.14844-2.7852-0.4375-3.2656-0.29297-0.48828-0.8125-0.73438-1.5625-0.73438-0.9375 0-1.6641 0.38672-2.1719 1.1562-0.51172 0.76172-0.76562 1.8594-0.76562 3.2969v7.5312h-4.9219v-15.312h4.9219v2.2344c0.60156-0.86328 1.2891-1.5156 2.0625-1.9531 0.78125-0.4375 1.6406-0.65625 2.5781-0.65625 1.0625 0 2 0.25781 2.8125 0.76562 0.8125 0.51172 1.4258 1.2305 1.8438 2.1562z"/>
  </symbol>
  <symbol id="q" overflow="visible">
   <path d="m17.75-9.3281v9.3281h-4.9219v-7.1094c0-1.3438-0.03125-2.2656-0.09375-2.7656s-0.16797-0.86719-0.3125-1.1094c-0.1875-0.3125-0.44922-0.55469-0.78125-0.73438-0.32422-0.17578-0.69531-0.26562-1.1094-0.26562-1.0234 0-1.8242 0.39844-2.4062 1.1875-0.58594 0.78125-0.875 1.8711-0.875 3.2656v7.5312h-4.8906v-21.281h4.8906v8.2031c0.73828-0.88281 1.5195-1.5391 2.3438-1.9688 0.83203-0.42578 1.75-0.64062 2.75-0.64062 1.7695 0 3.1133 0.54688 4.0312 1.6406 0.91406 1.0859 1.375 2.6562 1.375 4.7188z"/>
  </symbol>
  <symbol id="p" overflow="visible">
   <path d="m2.5781-20.406h5.875l7.4219 14v-14h4.9844v20.406h-5.875l-7.4219-14v14h-4.9844z"/>
  </symbol>
  <symbol id="o" overflow="visible">
   <path d="m2.5781-20.406h8.7344c2.5938 0 4.582 0.57812 5.9688 1.7344 1.3945 1.1484 2.0938 2.7891 2.0938 4.9219 0 2.1367-0.69922 3.7812-2.0938 4.9375-1.3867 1.1562-3.375 1.7344-5.9688 1.7344h-3.4844v7.0781h-5.25zm5.25 3.8125v5.7031h2.9219c1.0195 0 1.8047-0.25 2.3594-0.75 0.5625-0.5 0.84375-1.2031 0.84375-2.1094 0-0.91406-0.28125-1.6172-0.84375-2.1094-0.55469-0.48828-1.3398-0.73438-2.3594-0.73438z"/>
  </symbol>
  <symbol id="n" overflow="visible">
   <path d="m2.3594-15.312h4.8906v15.031c0 2.0508-0.49609 3.6172-1.4844 4.7031-0.98047 1.082-2.4062 1.625-4.2812 1.625h-2.4219v-3.2188h0.85938c0.92578 0 1.5625-0.21094 1.9062-0.625 0.35156-0.41797 0.53125-1.2461 0.53125-2.4844zm0-5.9688h4.8906v4h-4.8906z"/>
  </symbol>
  <symbol id="m" overflow="visible">
   <path d="m14.719-14.828v3.9844c-0.65625-0.45703-1.3242-0.79688-2-1.0156-0.66797-0.21875-1.3594-0.32812-2.0781-0.32812-1.3672 0-2.4336 0.40234-3.2031 1.2031-0.76172 0.79297-1.1406 1.9062-1.1406 3.3438 0 1.4297 0.37891 2.543 1.1406 3.3438 0.76953 0.79297 1.8359 1.1875 3.2031 1.1875 0.75781 0 1.4844-0.10938 2.1719-0.32812 0.6875-0.22656 1.3203-0.56641 1.9062-1.0156v4c-0.76172 0.28125-1.5391 0.48828-2.3281 0.625-0.78125 0.14453-1.5742 0.21875-2.375 0.21875-2.7617 0-4.9219-0.70703-6.4844-2.125-1.5547-1.4141-2.3281-3.3828-2.3281-5.9062 0-2.5312 0.77344-4.5039 2.3281-5.9219 1.5625-1.4141 3.7227-2.125 6.4844-2.125 0.80078 0 1.5938 0.074219 2.375 0.21875 0.78125 0.13672 1.5547 0.35156 2.3281 0.64062z"/>
  </symbol>
 </defs>
 <g>
  <path d="m528.3 355.43c-6.5547 0-12.84 2.6016-17.469 7.2383-4.6328 4.6367-7.2344 10.922-7.2266 17.477 0.003906 6.5508 2.6133 12.832 7.25 17.461 4.6406 4.6289 10.93 7.2227 17.48 7.2148 6.5547-0.011719 12.836-2.625 17.461-7.2656 4.625-4.6445 7.2148-10.934 7.1992-17.488 0-6.543-2.6055-12.82-7.2383-17.441-4.6328-4.6211-10.914-7.2109-17.457-7.1953zm0 32.48v-0.003906c-3.1992 0-6.082-1.9297-7.3008-4.8867-1.2188-2.957-0.53125-6.3555 1.7383-8.6094 2.2695-2.2539 5.6719-2.918 8.6211-1.6758 2.9492 1.2383 4.8594 4.1367 4.8359 7.332 0 2.0898-0.83203 4.0938-2.3164 5.5664-1.4805 1.4727-3.4883 2.2891-5.5781 2.2734z"/>
  <path d="m230.21 355.43c-6.5547-0.015625-12.848 2.5781-17.492 7.207-4.6406 4.6289-7.2539 10.914-7.2578 17.469s2.5977 12.844 7.2344 17.48c4.6328 4.6367 10.922 7.2383 17.48 7.2344 6.5547-0.003907 12.84-2.6172 17.469-7.2617 4.6289-4.6406 7.2227-10.934 7.207-17.492-0.015625-6.5273-2.6133-12.789-7.2344-17.406-4.6172-4.6172-10.875-7.2188-17.406-7.2305zm0 32.48v-0.003906c-3.2031 0.023438-6.1016-1.8906-7.3398-4.8477-1.2344-2.9531-0.5625-6.3633 1.7031-8.6289s5.6758-2.9375 8.6289-1.7031c2.957 1.2383 4.8711 4.1367 4.8477 7.3398-0.027344 4.3203-3.5195 7.8125-7.8398 7.8398z"/>
  <path d="m555.07 277.48c-18.535-20.496-37.465-30.969-58.688-46.984 17.473 0.67188 33.602-2.5195 43.734-12.711h0.003906c6.0117-6.0195 9.75-13.934 10.582-22.402 2.8555-24.359-15.793-47.488-43.008-57.793-71.734-28-156.41-8.5664-222.38-1.0625-39.199 3.5859-81.648 3.3047-120.12 3.3594-42.672 0.11328-58.129 24.977-58.129 41.891v183.18c0 15.734 8.9609 25.48 23.406 25.48h51.805c3.1953 14.703 12.965 27.125 26.5 33.699 13.531 6.5781 29.336 6.5781 42.871 0 13.535-6.5742 23.301-18.996 26.5-33.699h202.21c11.703 51.129 84 51.297 95.816 0 49.336 8.0625 39.199-57.457 26.656-74.703-9.5195-22.516-25.535-35.449-47.77-38.25zm26.488 34.047c-13.777-1.1758-23.633-4.3125-23.574-16.465 9.707 2.1992 18.172 8.1055 23.574 16.465zm-351.34 100.8c-8.5547 0-16.758-3.3984-22.809-9.4492-6.0469-6.0469-9.4453-14.254-9.4453-22.809 0-8.5547 3.3984-16.758 9.4453-22.809 6.0508-6.0469 14.254-9.4453 22.809-9.4453 8.5547 0 16.762 3.3984 22.809 9.4453 6.0508 6.0508 9.4492 14.254 9.4492 22.809 0 8.5547-3.3984 16.762-9.4492 22.809-6.0469 6.0508-14.254 9.4492-22.809 9.4492zm0-81.312c-11.891 0.007813-23.375 4.332-32.316 12.168-8.9414 7.8398-14.73 18.66-16.289 30.449h-51.129c-2.8008 0-6.6094 0-6.6094-8.6797v-183.18c0.46094-5.8555 3.2422-11.281 7.7305-15.066 9.6172-7.2812 21.566-10.809 33.598-9.9102 38.863 0 81.594 0 121.63-3.4141 63.785-7.3945 147.17-26.547 214.37-0.39453 32.93 13.328 33.602 34.273 32.648 40.375-1.457 13.273-12.32 20.328-31.473 20.328h-82.094c-2.5234-0.015624-4.9141 1.1211-6.4961 3.082-1.7031 1.9883-2.3477 4.6758-1.7383 7.2227 6.832 43.289 12.379 107.46 10.754 149.63h-27.215v-126.84c-0.015626-5.5664-2.2344-10.898-6.168-14.832-3.9375-3.9375-9.2695-6.1523-14.832-6.168h-44.297c-5.5664 0.015625-10.898 2.2305-14.832 6.168-3.9375 3.9336-6.1523 9.2656-6.168 14.832v126.84h-30.465c-1.5625-11.789-7.3516-22.609-16.293-30.449-8.9414-7.8359-20.426-12.16-32.316-12.168zm148.57 42.617h-52.691v-126.84c0-2.3203 1.8789-4.1992 4.1992-4.1992h44.297c2.3164 0 4.1992 1.8789 4.1992 4.1992zm149.52 38.695h0.003907c-8.5547 0-16.762-3.3984-22.809-9.4492-6.0508-6.0469-9.4492-14.254-9.4492-22.809 0-8.5547 3.3984-16.758 9.4492-22.809 6.0469-6.0469 14.254-9.4453 22.809-9.4453 8.5547 0 16.758 3.3984 22.809 9.4453 6.0469 6.0508 9.4453 14.254 9.4453 22.809-0.011719 8.5508-3.418 16.746-9.4609 22.793-6.0469 6.0469-14.242 9.4492-22.793 9.4648zm67.199-49.559c-2.0703 13.328-9.0156 12.488-18.703 11.199-8.625-56.672-88.426-56.785-97.273 0h-39.922c0.91797-47.887-2.1523-95.762-9.1875-143.14h39.199c26.488 22.902 50.062 33.602 72.801 57.457-5.0938 30.91 18.816 41.047 48.387 40.152 5.0117 10.699 6.7109 22.652 4.8711 34.328z"/>
  <path d="m291.43 280.56v-34.16c0-4.4531-1.7734-8.7266-4.9219-11.879-3.1523-3.1484-7.4258-4.918-11.879-4.918h-70.562c-4.4531 0-8.7266 1.7695-11.879 4.918-3.1484 3.1523-4.918 7.4258-4.918 11.879v34.16c0 4.457 1.7695 8.7305 4.918 11.879 3.1523 3.1523 7.4258 4.9219 11.879 4.9219h70.73c4.4258-0.042969 8.6562-1.832 11.77-4.9805 3.1133-3.1445 4.8633-7.3906 4.8633-11.82zm-16.801 0h-70.227v-33.602l70.227 0.003907z"/>
  <path d="m192.7 207.2v-23.465c0-6.8945-5.5898-12.488-12.488-12.488h-29.961c-6.9023 0-12.512 5.582-12.543 12.488v23.465c0.03125 6.9062 5.6406 12.488 12.543 12.488h29.961c6.8984 0 12.488-5.5898 12.488-12.488zm-16.801-4.3125h-21.391v-14.84h21.391z"/>
  <path d="m425.27 199.25h41.383c7.2695 0 13.16-5.8906 13.16-13.156v-16.801c0-7.2695-5.8906-13.16-13.16-13.16h-41.383c-7.2695 0-13.16 5.8906-13.16 13.16v16.801c0 3.4883 1.3867 6.8359 3.8516 9.3047 2.4688 2.4688 5.8164 3.8516 9.3086 3.8516zm3.6406-26.266h34.105v9.4648l-34.109 0.003907z"/>
  <path d="m344.4 296.8h-6.7734c-4.6406 0-8.4023 3.7617-8.4023 8.3984 0 4.6406 3.7617 8.4023 8.4023 8.4023h6.7734c4.6406 0 8.4023-3.7617 8.4023-8.4023 0-4.6367-3.7617-8.3984-8.4023-8.3984z"/>
  <path d="m479.41 245.95-8.8477-6.2734c-1.4297-1.043-3.1562-1.5938-4.9258-1.5664h-19.711c-2.5039 0.023438-4.8711 1.1523-6.4609 3.0859-1.5859 1.9375-2.2383 4.4766-1.7734 6.9375 3.1172 13.336 4.8242 26.961 5.0977 40.656 0 4.6367 3.7617 8.3984 8.3984 8.3984h69.273c3.3555-0.14062 6.3086-2.2578 7.5234-5.3906 1.2148-3.1328 0.46094-6.6875-1.9258-9.0586-14.633-13.383-30.223-25.68-46.648-36.789zm-20.047 34.441v-0.003906c-0.42969-8.5469-1.4219-17.059-2.9688-25.48h6.832c11.199 8.1758 22.848 15.902 34.945 25.48z"/>

 </g>
</svg>
