<?xml version="1.0" encoding="UTF-8"?>
<svg width="700pt" height="700pt" version="1.1" viewBox="0 0 700 700" xmlns="http://www.w3.org/2000/svg">
 <g fill-rule="evenodd">
  <path d="m364.86 137.62h124.95v-48.062c0-4.7188-1.8672-9.1875-5.2578-12.578-3.3906-3.3906-7.8594-5.2578-12.582-5.2578h-63.438zm130.71 11.523h-141.44c-2.1211 0-4.0703-1.1641-5.0742-3.0352-1.0039-1.8711-0.89844-4.1406 0.27344-5.9062l51.312-77.418c1.0664-1.6094 2.8711-2.5781 4.8008-2.5781h66.531c7.8008 0 15.16 3.0664 20.727 8.6328 5.5664 5.5664 8.6328 12.926 8.6328 20.727v53.82c0 3.1836-2.5781 5.7617-5.7617 5.7617zm-286.69 110.53v233.01c0 15.09 12.273 27.363 27.363 27.363h257.96c15.09 0 27.363-12.273 27.363-27.363v-403.12c0-13.199-5.1719-25.641-14.562-35.031-9.3906-9.3906-21.832-14.562-35.035-14.562h-73.652c-3.1992 0-6.1328 1.4609-8.0664 4.0078l-68.977 102.62c-0.20312 0.30469-0.4375 0.58984-0.69531 0.85156l-111.7 112.23zm285.32 271.89h-257.96c-21.441 0-38.883-17.441-38.883-38.883v-235.39c0-1.5234 0.60156-2.9844 1.6758-4.0625l112.98-113.53 68.75-102.29c0.046874-0.070313 0.10156-0.14453 0.15234-0.21484 4.0664-5.4922 10.57-8.7656 17.395-8.7656h73.652c16.277 0 31.613 6.3711 43.184 17.938 11.566 11.566 17.938 26.902 17.938 43.18v403.12c0 21.441-17.441 38.887-38.883 38.887z"/>
  <path d="m281.06 184.84c-1.4727 0-2.9492-0.5625-4.0742-1.6875l-18.324-18.324c-2.25-2.25-2.25-5.8945 0-8.1445s5.8945-2.25 8.1445 0l18.324 18.324c2.25 2.25 2.25 5.8984 0 8.1484-1.125 1.1211-2.5977 1.6875-4.0742 1.6875zm-42.5 42.5c-1.4727 0-2.9492-0.55859-4.0742-1.6836l-18.324-18.328c-2.25-2.25-2.25-5.8984 0-8.1445 2.25-2.25 5.8984-2.25 8.1445 0l18.324 18.324c2.25 2.25 2.25 5.8984 0 8.1484-1.125 1.125-2.5977 1.6875-4.0742 1.6836z"/>
  <path d="m180.82 178.3 28.113 28.113 56.965-56.965-28.113-28.113zm28.113 42.02c-1.4727 0-2.9492-0.55859-4.0742-1.6836l-36.262-36.262c-2.25-2.2461-2.25-5.8945 0-8.1445l65.113-65.113c2.25-2.25 5.8984-2.25 8.1445 0l36.262 36.258c1.082 1.082 1.6875 2.5469 1.6875 4.0742s-0.60547 2.9922-1.6875 4.0742l-65.113 65.113c-1.125 1.125-2.5977 1.6875-4.0742 1.6836z"/>
  <path d="m367.83 242.53c-31.922 39.777-51.004 75.836-56.734 107.25-4.5781 25.078-0.22266 46.129 12.59 60.883 11.297 13 28.305 20.043 46.676 19.301 17.453-0.70312 33.254-8.5078 43.359-21.418 11.891-15.191 15.461-36.438 10.328-61.441-6.3242-30.805-25.23-65.965-56.215-104.58zm-0.09375 199.01c-20.703 0-39.789-8.3984-52.75-23.32-10.59-12.191-21.828-34.32-15.227-70.504 6.3516-34.812 27.758-74.504 63.625-117.98 1.0938-1.3281 2.7227-2.0938 4.4453-2.0938 1.7188 0 3.3477 0.76953 4.4453 2.0938 34.84 42.23 56.059 80.941 63.062 115.05 7.3711 35.902-2.7539 58.352-12.543 70.859-12.191 15.578-31.133 24.992-51.969 25.828-1.0312 0.042969-2.0625 0.0625-3.0859 0.0625z"/>
  <path d="m527.33 490.06h-324.21c-3.1836 0-5.7617-2.5781-5.7617-5.7617 0-3.1836 2.5781-5.7617 5.7617-5.7617h324.21c3.1797 0 5.7578 2.582 5.7578 5.7617 0 3.1797-2.5781 5.7617-5.7578 5.7617z"/>
  <path d="m250.81 386.67c-3.1797 0-5.7617-2.5781-5.7617-5.7617v-92.637c0-3.1836 2.5781-5.7578 5.7617-5.7578 3.1797 0 5.7617 2.5781 5.7617 5.7617v92.633c0 3.1836-2.5781 5.7617-5.7617 5.7617z"/>
  <path d="m479.64 386.67c-3.1836 0-5.7617-2.5781-5.7617-5.7617v-92.637c0-3.1836 2.5781-5.7578 5.7617-5.7578s5.7617 2.5781 5.7617 5.7617v92.633c0 3.1836-2.5781 5.7617-5.7617 5.7617z"/>
 </g>
</svg>
