<?xml version="1.0" encoding="UTF-8"?>
<svg width="700pt" height="700pt" version="1.1" viewBox="0 0 700 700" xmlns="http://www.w3.org/2000/svg" xmlns:xlink="http://www.w3.org/1999/xlink">
 <defs>
  <symbol id="u" overflow="visible">
   <path d="m3.8281-0.23438c-0.19922 0.10547-0.40625 0.18359-0.625 0.23438-0.21094 0.050781-0.43359 0.078125-0.67188 0.078125-0.6875 0-1.2344-0.19141-1.6406-0.57812-0.40625-0.38281-0.60938-0.91016-0.60938-1.5781 0-0.66406 0.20312-1.1914 0.60938-1.5781 0.40625-0.38281 0.95312-0.57812 1.6406-0.57812 0.23828 0 0.46094 0.027344 0.67188 0.078125 0.21875 0.054688 0.42578 0.13281 0.625 0.23438v0.85938c-0.21094-0.13281-0.41406-0.23438-0.60938-0.29688-0.1875-0.0625-0.38672-0.09375-0.59375-0.09375-0.38672 0-0.6875 0.125-0.90625 0.375-0.21875 0.24219-0.32812 0.57422-0.32812 1 0 0.42969 0.10938 0.76562 0.32812 1.0156 0.21875 0.24219 0.51953 0.35938 0.90625 0.35938 0.20703 0 0.40625-0.03125 0.59375-0.09375 0.19531-0.0625 0.39844-0.16016 0.60938-0.29688z"/>
  </symbol>
  <symbol id="e" overflow="visible">
   <path d="m2.7969-2.2656c-0.085937-0.039063-0.17188-0.070313-0.26562-0.09375-0.085938-0.019531-0.16797-0.03125-0.25-0.03125-0.26172 0-0.46484 0.085937-0.60938 0.25-0.13672 0.16797-0.20312 0.40234-0.20312 0.70312v1.4375h-0.98438v-3.125h0.98438v0.51562c0.13281-0.19531 0.28516-0.34375 0.45312-0.4375 0.16406-0.09375 0.36328-0.14062 0.59375-0.14062h0.10938c0.039062 0 0.097656 0.007812 0.17188 0.015625z"/>
  </symbol>
  <symbol id="a" overflow="visible">
   <path d="m3.5938-1.5625v0.28125h-2.3281c0.019531 0.23047 0.10156 0.40625 0.25 0.53125 0.14453 0.11719 0.34766 0.17188 0.60938 0.17188 0.20703 0 0.42188-0.03125 0.64062-0.09375s0.44141-0.15625 0.67188-0.28125v0.76562c-0.23047 0.085938-0.46484 0.14844-0.70312 0.1875-0.23047 0.050781-0.46484 0.078125-0.70312 0.078125-0.5625 0-1-0.14062-1.3125-0.42188-0.3125-0.28906-0.46875-0.69531-0.46875-1.2188 0-0.5 0.14844-0.89453 0.45312-1.1875 0.3125-0.28906 0.73438-0.4375 1.2656-0.4375 0.48828 0 0.87891 0.14844 1.1719 0.4375 0.30078 0.29297 0.45312 0.6875 0.45312 1.1875zm-1.0312-0.34375c0-0.1875-0.058594-0.33594-0.17188-0.45312-0.10547-0.11328-0.24609-0.17188-0.42188-0.17188-0.19922 0-0.35938 0.058594-0.48438 0.17188-0.11719 0.10547-0.1875 0.25781-0.21875 0.45312z"/>
  </symbol>
  <symbol id="d" overflow="visible">
   <path d="m1.875-1.4062c-0.21094 0-0.36719 0.039062-0.46875 0.10938-0.10547 0.074219-0.15625 0.17969-0.15625 0.3125 0 0.125 0.039062 0.22656 0.125 0.29688 0.082031 0.074219 0.20312 0.10938 0.35938 0.10938 0.1875 0 0.34375-0.066406 0.46875-0.20312 0.125-0.13281 0.1875-0.30469 0.1875-0.51562v-0.10938zm1.5312-0.375v1.7812h-1.0156v-0.46875c-0.13672 0.19922-0.28906 0.33984-0.45312 0.42188-0.16797 0.082031-0.37109 0.125-0.60938 0.125-0.32422 0-0.58594-0.09375-0.78125-0.28125-0.19922-0.1875-0.29688-0.42969-0.29688-0.73438 0-0.36328 0.125-0.62891 0.375-0.79688 0.25-0.17578 0.64453-0.26562 1.1875-0.26562h0.57812v-0.078125c0-0.15625-0.0625-0.26953-0.1875-0.34375-0.125-0.070313-0.32031-0.10938-0.57812-0.10938-0.21094 0-0.40625 0.023438-0.59375 0.0625-0.1875 0.042969-0.35938 0.10547-0.51562 0.1875v-0.75c0.21875-0.050781 0.42969-0.085938 0.64062-0.10938 0.21875-0.03125 0.4375-0.046875 0.65625-0.046875 0.5625 0 0.96875 0.10938 1.2188 0.32812s0.375 0.57812 0.375 1.0781z"/>
  </symbol>
  <symbol id="c" overflow="visible">
   <path d="m1.5625-4v0.875h1.0312v0.71875h-1.0312v1.3281c0 0.14844 0.023438 0.24609 0.078125 0.29688 0.0625 0.042969 0.17969 0.0625 0.35938 0.0625h0.51562v0.71875h-0.85938c-0.39844 0-0.67969-0.082031-0.84375-0.25-0.15625-0.16406-0.23438-0.44141-0.23438-0.82812v-1.3281h-0.5v-0.71875h0.5v-0.875z"/>
  </symbol>
  <symbol id="k" overflow="visible">
   <path d="m2.5938-2.6562v-1.6719h1.0156v4.3281h-1.0156v-0.45312c-0.13672 0.1875-0.28906 0.32422-0.45312 0.40625-0.15625 0.082031-0.34375 0.125-0.5625 0.125-0.38672 0-0.70312-0.14844-0.95312-0.45312-0.25-0.30078-0.375-0.69531-0.375-1.1875 0-0.47656 0.125-0.86719 0.375-1.1719 0.25-0.30078 0.56641-0.45312 0.95312-0.45312 0.20703 0 0.39453 0.042969 0.5625 0.125 0.16406 0.085938 0.31641 0.21875 0.45312 0.40625zm-0.65625 2.0156c0.21875 0 0.37891-0.078125 0.48438-0.23438 0.11328-0.15625 0.17188-0.38281 0.17188-0.6875 0-0.28906-0.058594-0.51562-0.17188-0.67188-0.10547-0.15625-0.26562-0.23438-0.48438-0.23438-0.21094 0-0.37109 0.078125-0.48438 0.23438-0.10547 0.15625-0.15625 0.38281-0.15625 0.67188 0 0.30469 0.050781 0.53125 0.15625 0.6875 0.11328 0.15625 0.27344 0.23438 0.48438 0.23438z"/>
  </symbol>
  <symbol id="j" overflow="visible">
   <path d="m2.1406-0.64062c0.20703 0 0.36719-0.078125 0.48438-0.23438 0.11328-0.15625 0.17188-0.38281 0.17188-0.6875 0-0.28906-0.058594-0.51562-0.17188-0.67188-0.11719-0.15625-0.27734-0.23438-0.48438-0.23438-0.21875 0-0.38672 0.078125-0.5 0.23438-0.11719 0.15625-0.17188 0.38281-0.17188 0.67188 0 0.30469 0.054688 0.53125 0.17188 0.6875 0.11328 0.15625 0.28125 0.23438 0.5 0.23438zm-0.67188-2.0156c0.14453-0.1875 0.30078-0.32031 0.46875-0.40625 0.16406-0.082031 0.35938-0.125 0.57812-0.125 0.375 0 0.6875 0.15234 0.9375 0.45312 0.25 0.30469 0.375 0.69531 0.375 1.1719 0 0.49219-0.125 0.88672-0.375 1.1875-0.25 0.30469-0.5625 0.45312-0.9375 0.45312-0.21875 0-0.41406-0.042969-0.57812-0.125-0.16797-0.082031-0.32422-0.21875-0.46875-0.40625v0.45312h-0.98438v-4.3281h0.98438z"/>
  </symbol>
  <symbol id="i" overflow="visible">
   <path d="m0.0625-3.125h1l0.84375 2.125 0.71875-2.125h0.98438l-1.3125 3.4219c-0.125 0.34375-0.27734 0.58203-0.45312 0.71875-0.17969 0.14453-0.41406 0.21875-0.70312 0.21875h-0.5625v-0.65625h0.29688c0.17578 0 0.30078-0.027344 0.375-0.078125 0.082031-0.054688 0.14453-0.15234 0.1875-0.29688l0.015625-0.078125z"/>
  </symbol>
  <symbol id="h" overflow="visible">
   <path d="m0.53125-4.1562h1.3594l0.9375 2.2188 0.95312-2.2188h1.375v4.1562h-1.0156v-3.0469l-0.96875 2.25h-0.67188l-0.95312-2.25v3.0469h-1.0156z"/>
  </symbol>
  <symbol id="f" overflow="visible">
   <path d="m3.6094-1.9062v1.9062h-1v-1.4531c0-0.26953-0.007813-0.45312-0.015625-0.54688-0.011719-0.10156-0.03125-0.17969-0.0625-0.23438-0.042969-0.0625-0.10156-0.10938-0.17188-0.14062-0.0625-0.039062-0.13672-0.0625-0.21875-0.0625-0.21094 0-0.375 0.085938-0.5 0.25-0.11719 0.15625-0.17188 0.375-0.17188 0.65625v1.5312h-0.98438v-3.125h0.98438v0.46875c0.15625-0.1875 0.31641-0.32031 0.48438-0.40625 0.16406-0.082031 0.35156-0.125 0.5625-0.125 0.36328 0 0.63281 0.10938 0.8125 0.32812 0.1875 0.21875 0.28125 0.53906 0.28125 0.95312z"/>
  </symbol>
  <symbol id="t" overflow="visible">
   <path d="m0.53125-4.1562h1.0625v4.1562h-1.0625z"/>
  </symbol>
  <symbol id="g" overflow="visible">
   <path d="m3-3.0156v0.8125c-0.13672-0.09375-0.27344-0.16016-0.40625-0.20312-0.13672-0.050781-0.27734-0.078125-0.42188-0.078125-0.28125 0-0.5 0.085937-0.65625 0.25-0.15625 0.15625-0.23438 0.38281-0.23438 0.67188 0 0.29297 0.078125 0.52344 0.23438 0.6875 0.15625 0.16797 0.375 0.25 0.65625 0.25 0.15625 0 0.30078-0.019531 0.4375-0.0625 0.14453-0.050781 0.27344-0.125 0.39062-0.21875v0.8125c-0.15625 0.0625-0.32031 0.10156-0.48438 0.125-0.15625 0.03125-0.3125 0.046875-0.46875 0.046875-0.5625 0-1.0078-0.14062-1.3281-0.42188-0.3125-0.28906-0.46875-0.69531-0.46875-1.2188 0-0.50781 0.15625-0.90625 0.46875-1.1875 0.32031-0.28906 0.76562-0.4375 1.3281-0.4375 0.15625 0 0.3125 0.015625 0.46875 0.046875 0.16406 0.023437 0.32812 0.0625 0.48438 0.125z"/>
  </symbol>
  <symbol id="b" overflow="visible">
   <path d="m1.9688-2.4844c-0.23047 0-0.40234 0.085937-0.51562 0.25-0.11719 0.15625-0.17188 0.38281-0.17188 0.67188 0 0.30469 0.054688 0.53906 0.17188 0.70312 0.11328 0.15625 0.28516 0.23438 0.51562 0.23438 0.20703 0 0.36719-0.078125 0.48438-0.23438 0.125-0.16406 0.1875-0.39844 0.1875-0.70312 0-0.28906-0.0625-0.51562-0.1875-0.67188-0.11719-0.16406-0.27734-0.25-0.48438-0.25zm0-0.70312c0.53125 0 0.94531 0.14844 1.25 0.4375 0.30078 0.28125 0.45312 0.67969 0.45312 1.1875 0 0.52344-0.15234 0.92969-0.45312 1.2188-0.30469 0.28125-0.71875 0.42188-1.25 0.42188-0.54297 0-0.96484-0.14062-1.2656-0.42188-0.30469-0.28906-0.45312-0.69531-0.45312-1.2188 0-0.50781 0.14844-0.90625 0.45312-1.1875 0.30078-0.28906 0.72266-0.4375 1.2656-0.4375z"/>
  </symbol>
  <symbol id="s" overflow="visible">
   <path d="m2.9219-3.0156v0.75c-0.21875-0.082031-0.42969-0.14453-0.625-0.1875-0.19922-0.050781-0.38672-0.078125-0.5625-0.078125-0.1875 0-0.32812 0.027344-0.42188 0.078125-0.09375 0.042969-0.14062 0.11719-0.14062 0.21875 0 0.074219 0.035156 0.13281 0.10938 0.17188 0.070312 0.042969 0.19531 0.074219 0.375 0.09375l0.17188 0.03125c0.50781 0.0625 0.85156 0.17188 1.0312 0.32812 0.17578 0.14844 0.26562 0.375 0.26562 0.6875 0 0.33594-0.125 0.58594-0.375 0.75-0.24219 0.16797-0.60547 0.25-1.0938 0.25-0.21094 0-0.42188-0.015625-0.64062-0.046875s-0.44531-0.078125-0.67188-0.14062v-0.76562c0.19531 0.09375 0.39844 0.16797 0.60938 0.21875 0.20703 0.054688 0.42188 0.078125 0.64062 0.078125 0.1875 0 0.32812-0.023437 0.42188-0.078125 0.10156-0.0625 0.15625-0.14453 0.15625-0.25 0-0.082031-0.039063-0.14453-0.10938-0.1875-0.0625-0.050781-0.19531-0.085938-0.39062-0.10938l-0.17188-0.015625c-0.44922-0.0625-0.76172-0.16406-0.9375-0.3125-0.17969-0.15625-0.26562-0.38281-0.26562-0.6875 0-0.33203 0.10938-0.57812 0.32812-0.73438 0.22656-0.15625 0.57812-0.23438 1.0469-0.23438 0.1875 0 0.37891 0.015625 0.57812 0.046875 0.20703 0.023437 0.42969 0.0625 0.67188 0.125z"/>
  </symbol>
  <symbol id="r" overflow="visible">
   <path d="m2.5312-4.3281v0.65625h-0.54688c-0.14844 0-0.25 0.027344-0.3125 0.078125-0.054687 0.042969-0.078125 0.125-0.078125 0.25v0.21875h0.85938v0.71875h-0.85938v2.4062h-0.98438v-2.4062h-0.5v-0.71875h0.5v-0.21875c0-0.33203 0.09375-0.57812 0.28125-0.73438 0.1875-0.16406 0.47656-0.25 0.875-0.25z"/>
  </symbol>
  <symbol id="q" overflow="visible">
   <path d="m3.375-2.5938c0.125-0.19531 0.26953-0.34375 0.4375-0.4375 0.17578-0.10156 0.36719-0.15625 0.57812-0.15625 0.35156 0 0.625 0.10938 0.8125 0.32812s0.28125 0.53906 0.28125 0.95312v1.9062h-1v-1.625-0.0625c0.007813-0.03125 0.015625-0.070312 0.015625-0.125 0-0.21875-0.039062-0.375-0.10938-0.46875-0.0625-0.10156-0.16797-0.15625-0.3125-0.15625-0.1875 0-0.33594 0.078125-0.4375 0.23438-0.10547 0.15625-0.15625 0.38281-0.15625 0.67188v1.5312h-1v-1.625c0-0.34375-0.03125-0.5625-0.09375-0.65625-0.0625-0.10156-0.16797-0.15625-0.3125-0.15625-0.19922 0-0.35156 0.078125-0.45312 0.23438-0.10547 0.15625-0.15625 0.38281-0.15625 0.67188v1.5312h-1v-3.125h1v0.46875c0.125-0.17578 0.26562-0.30469 0.42188-0.39062 0.16406-0.09375 0.34375-0.14062 0.53125-0.14062 0.21875 0 0.40625 0.054688 0.5625 0.15625 0.16406 0.10547 0.29688 0.25 0.39062 0.4375z"/>
  </symbol>
  <symbol id="p" overflow="visible">
   <path d="m3.6094-1.9062v1.9062h-1v-1.4531c0-0.26953-0.007813-0.45312-0.015625-0.54688-0.011719-0.10156-0.03125-0.17969-0.0625-0.23438-0.042969-0.0625-0.10156-0.10938-0.17188-0.14062-0.0625-0.039062-0.13672-0.0625-0.21875-0.0625-0.21094 0-0.375 0.085938-0.5 0.25-0.11719 0.15625-0.17188 0.375-0.17188 0.65625v1.5312h-0.98438v-4.3281h0.98438v1.6719c0.15625-0.1875 0.31641-0.32031 0.48438-0.40625 0.16406-0.082031 0.35156-0.125 0.5625-0.125 0.36328 0 0.63281 0.10938 0.8125 0.32812 0.1875 0.21875 0.28125 0.53906 0.28125 0.95312z"/>
  </symbol>
  <symbol id="o" overflow="visible">
   <path d="m0.53125-4.1562h1.1875l1.5156 2.8438v-2.8438h1.0156v4.1562h-1.2031l-1.5-2.8594v2.8594h-1.0156z"/>
  </symbol>
  <symbol id="n" overflow="visible">
   <path d="m0.45312-1.2188v-1.9062h1v0.3125c0 0.17969-0.007813 0.39844-0.015625 0.65625v0.5c0 0.25 0.003906 0.43359 0.015625 0.54688 0.019531 0.10547 0.046875 0.18359 0.078125 0.23438 0.039062 0.0625 0.09375 0.11719 0.15625 0.15625 0.0625 0.03125 0.14062 0.046875 0.23438 0.046875 0.20703 0 0.36719-0.078125 0.48438-0.23438 0.11328-0.16406 0.17188-0.39062 0.17188-0.67188v-1.5469h1v3.125h-1v-0.45312c-0.14844 0.1875-0.30469 0.32422-0.46875 0.40625-0.16797 0.082031-0.35547 0.125-0.5625 0.125-0.35547 0-0.625-0.10938-0.8125-0.32812s-0.28125-0.53906-0.28125-0.96875z"/>
  </symbol>
  <symbol id="m" overflow="visible">
   <path d="m0.53125-4.1562h1.7656c0.53125 0 0.9375 0.12109 1.2188 0.35938 0.28906 0.23047 0.4375 0.5625 0.4375 1s-0.14844 0.77734-0.4375 1.0156c-0.28125 0.23047-0.6875 0.34375-1.2188 0.34375h-0.70312v1.4375h-1.0625zm1.0625 0.78125v1.1562h0.59375c0.20703 0 0.36719-0.046875 0.48438-0.14062 0.11328-0.10156 0.17188-0.25 0.17188-0.4375s-0.058594-0.32812-0.17188-0.42188c-0.11719-0.10156-0.27734-0.15625-0.48438-0.15625z"/>
  </symbol>
  <symbol id="l" overflow="visible">
   <path d="m0.48438-3.125h0.98438v3.0625c0 0.42578-0.10156 0.75-0.29688 0.96875-0.19922 0.21875-0.49219 0.32812-0.875 0.32812h-0.48438v-0.65625h0.17188c0.1875 0 0.31641-0.046875 0.39062-0.14062 0.070312-0.085938 0.10938-0.25 0.10938-0.5zm0-1.2031h0.98438v0.8125h-0.98438z"/>
  </symbol>
 </defs>
 <g>
  <path d="m456.47 476.48h-47.055c-2.9609 0-5.3555-2.3945-5.3555-5.3555v-193.12c0-2.9609 2.3945-5.3555 5.3555-5.3555h99.582c12.418 0 23.016 7.5195 27.23 19.141l25.977 72.691c1.9375 5.3555 6.6094 9 11.621 12.988 1.1406 0.91016 2.2773 1.7109 3.3047 2.6211 6.8359 5.6953 10.48 13.332 10.48 22.332v36.348c0 2.9609-2.3945 5.3555-5.3555 5.3555-2.9609 0-5.3555-2.3945-5.3555-5.3555v-36.348c0-5.6953-2.1641-10.367-6.6094-14.016-1.0273-0.79688-2.0508-1.7109-3.1914-2.5078-5.6953-4.4453-12.191-9.5703-15.039-17.773l-25.977-72.691c-2.6211-7.4062-9.2305-11.965-17.09-11.965h-94.113v182.41h41.586c2.9609 0 5.3555 2.3945 5.3555 5.3555 0.003906 2.8477-2.3867 5.2422-5.3516 5.2422z" fill-rule="evenodd"/>
  <path d="m216.75 437.18c-18.688 0-33.953 15.266-33.953 33.953s15.266 33.953 33.953 33.953 33.953-15.266 33.953-33.953c0-18.684-15.266-33.953-33.953-33.953zm0 78.73c-24.723 0-44.777-20.055-44.777-44.777s20.055-44.777 44.777-44.777 44.777 20.055 44.777 44.777c-0.11328 24.609-20.168 44.777-44.777 44.777z" fill-rule="evenodd"/>
  <path d="m216.75 460.3c-6.0391 0-10.824 4.8984-10.824 10.824 0 6.0391 4.8984 10.824 10.824 10.824 6.0391 0 10.824-4.8984 10.824-10.824 0-6.0391-4.8984-10.824-10.824-10.824zm0 32.473c-11.965 0-21.648-9.6836-21.648-21.648s9.6836-21.648 21.648-21.648 21.648 9.6836 21.648 21.648-9.6836 21.648-21.648 21.648z" fill-rule="evenodd"/>
  <path d="m495.78 437.18c-18.688 0-33.953 15.266-33.953 33.953s15.266 33.953 33.953 33.953 33.953-15.266 33.953-33.953c0-18.684-15.152-33.953-33.953-33.953zm0 78.73c-24.723 0-44.777-20.055-44.777-44.777s20.055-44.777 44.777-44.777 44.777 20.055 44.777 44.777c0 24.609-20.051 44.777-44.777 44.777z" fill-rule="evenodd"/>
  <path d="m495.78 460.3c-6.0391 0-10.824 4.8984-10.824 10.824 0 6.0391 4.8984 10.824 10.824 10.824 6.0391 0 10.824-4.8984 10.824-10.824 0.11328-6.0391-4.7852-10.824-10.824-10.824zm0 32.473c-11.965 0-21.648-9.6836-21.648-21.648s9.6836-21.648 21.648-21.648 21.648 9.6836 21.648 21.648c0.11328 11.965-9.6836 21.648-21.648 21.648z" fill-rule="evenodd"/>
  <path d="m457.96 410.17h-19.598c-2.9609 0-5.3555-2.3945-5.3555-5.3555 0-2.9609 2.3945-5.3555 5.3555-5.3555h19.598c2.9609 0 5.3555 2.3945 5.3555 5.3555-0.003906 2.9648-2.3945 5.3555-5.3555 5.3555z" fill-rule="evenodd"/>
  <path d="m582.15 476.48h-47.055c-2.9609 0-5.3555-2.3945-5.3555-5.3555 0-2.9609 2.3945-5.3555 5.3555-5.3555h47.055c2.2773 0 4.2148-1.9375 4.2148-4.2148v-13.215c0-2.2773-1.9375-4.2148-4.2148-4.2148h-64.148c-2.9609 0-5.3555-2.3945-5.3555-5.3555 0-2.9609 2.3945-5.3555 5.3555-5.3555h64.148c8.3164 0 15.039 6.7227 15.039 15.039v13.215c0 8.0898-6.7227 14.812-15.039 14.812z" fill-rule="evenodd"/>
  <path d="m177.44 476.48h-59.59c-8.3164 0-15.039-6.7227-15.039-15.039v-51.043c0-8.3164 6.7227-15.039 15.039-15.039h291.57c2.9609 0 5.3555 2.3945 5.3555 5.3555s-2.3945 5.3555-5.3555 5.3555h-291.57c-2.2773 0-4.2148 1.9375-4.2148 4.2148v51.043c0 2.2773 1.9375 4.2148 4.2148 4.2148h59.59c2.9609 0 5.3555 2.3945 5.3555 5.3555 0 3.1875-2.3906 5.582-5.3555 5.582zm116.45 0h-37.828c-2.9609 0-5.3555-2.3945-5.3555-5.3555 0-2.9609 2.3945-5.3555 5.3555-5.3555h37.828c2.9609 0 5.3555 2.3945 5.3555 5.3555 0.11328 2.9609-2.3945 5.3555-5.3555 5.3555zm115.53 0h-45.348c-2.9609 0-5.3555-2.3945-5.3555-5.3555 0-2.9609 2.3945-5.3555 5.3555-5.3555h45.348c2.9609 0 5.3555 2.3945 5.3555 5.3555 0.11328 2.9609-2.3945 5.3555-5.3555 5.3555z" fill-rule="evenodd"/>
  <path d="m555.83 368.02h-91.605c-2.9609 0-5.3555-2.3945-5.3555-5.3555v-60.043c0-2.9609 2.3945-5.3555 5.3555-5.3555h70.184c2.9609 0 5.3555 2.3945 5.3555 5.3555 0 2.9609-2.3945 5.3555-5.3555 5.3555h-64.832v49.223h86.25c2.9609 0 5.3555 2.3945 5.3555 5.3555 0.003906 3.0742-2.3906 5.4648-5.3516 5.4648z" fill-rule="evenodd"/>
  <path d="m582.15 425.89h-20.168c-6.6094 0-11.965-5.3555-11.965-11.965v-8.4297c0-6.6094 5.3555-11.965 11.965-11.965h19.938c2.9609 0 5.3555 2.3945 5.3555 5.3555s-2.3945 5.3555-5.3555 5.3555h-19.938c-0.57031 0-1.1406 0.57031-1.1406 1.1406v8.4297c0 0.57031 0.57031 1.1406 1.1406 1.1406h20.168c2.9609 0 5.3555 2.3945 5.3555 5.3555 0.11328 3.1914-2.2812 5.582-5.3555 5.582z" fill-rule="evenodd"/>
  <path d="m376.72 406.3c-2.9609 0-5.3555-2.3945-5.3555-5.3555v-231.29c0-7.4062 6.0391-13.445 13.445-13.445h16.52c7.4062 0 13.445 6.0391 13.445 13.445v108.36c0 2.9609-2.3945 5.3555-5.3555 5.3555-2.9609 0-5.3555-2.3945-5.3555-5.3555v-108.36c0-1.4805-1.2539-2.7344-2.7344-2.7344h-16.52c-1.4805 0-2.7344 1.2539-2.7344 2.7344v231.18c0 2.9609-2.3945 5.4688-5.3555 5.4688z" fill-rule="evenodd"/>
  <path d="m287.39 382.71h-113.94c-2.9609 0-5.3555-2.3945-5.3555-5.3555s2.3945-5.3555 5.3555-5.3555h113.94c2.9609 0 5.3555 2.3945 5.3555 5.3555 0.11328 2.9609-2.3906 5.3555-5.3555 5.3555zm-144.81-113.6 5.1289 1.8242v-0.11328zm197.34 113.94c-1.8242 0-3.875-0.11328-6.0391-0.34375-2.9609-0.34375-5.0117-3.0781-4.6719-6.0391 0.34375-2.9609 3.0781-5.0117 6.0391-4.6719 5.9258 0.68359 10.254 0.11328 12.191-1.5938 0.45703-0.45703 1.8242-1.5938 1.7109-5.8125-0.11328-4.7852-0.11328-9.5703 0-14.242v-7.0625c0-23.355-20.168-28.711-51.043-34.41-2.2773-0.45703-4.5586-0.79688-6.8359-1.2539-1.0273-0.22656-1.9375-0.68359-2.7344-1.4805l-33.844-32.695c-2.6211-2.6211-2.6211-2.6211-7.4062-2.6211h-0.11328-99.469c2.9609 5.8125 1.5938 10.48-0.11328 13.332-13.672 24.039-16.52 24.609-18.688 25.18-0.68359 0.11328-2.1641 1.3672-3.875 5.1289-6.7227 14.699-7.0625 45.004-4.7852 50.359 0.45703 0.45703 1.1406 1.0273 1.8242 1.7109 1.9375 1.8242 4.8984 4.6719 6.6094 5.4688 2.7344 1.2539 3.875 4.5586 2.5078 7.1797-1.2539 2.7344-4.5586 3.875-7.1797 2.5078-3.3047-1.5938-6.7227-4.7852-9.457-7.4062-0.68359-0.68359-1.3672-1.2539-1.9375-1.8242-7.0625-6.4961-4.6719-38.625-0.57031-53.551 3.0781-11.281 7.4062-17.773 13.215-19.711 2.0508-2.2773 7.5195-10.824 12.875-20.281 0.34375-0.68359 0.68359-1.3672-0.22656-3.0781-1.7109-3.418-1.5938-7.293 0.45703-10.48 1.9375-3.1914 5.3555-5.1289 9.2305-5.1289h99.352c6.6094 0 9.457 0.22656 15.152 5.582l32.699 31.676c1.7109 0.34375 3.418 0.68359 5.1289 0.91016 26.66 4.8984 59.93 10.938 59.93 45.004v7.0625c0 4.5586-0.11328 9.3438 0 14.016 0.11328 6.0391-1.7109 10.711-5.2422 14.016-3.4141 2.9609-8.3125 4.5547-14.691 4.5547z" fill-rule="evenodd"/>
  <path d="m149.98 359.13c-10.027 0-18.117 8.2031-18.117 18.117 0 10.027 8.2031 18.117 18.117 18.117 10.027 0 18.117-8.2031 18.117-18.117 0-9.9141-8.0898-18.117-18.117-18.117zm0 47.172c-15.949 0-28.941-12.988-28.941-28.941 0-15.949 12.988-28.941 28.941-28.941 15.949 0 28.941 12.988 28.941 28.941-0.003906 15.949-12.992 28.941-28.941 28.941z" fill-rule="evenodd"/>
  <path d="m310.98 359.13c-10.027 0-18.117 8.2031-18.117 18.117 0 10.027 8.2031 18.117 18.117 18.117 10.027 0 18.117-8.2031 18.117-18.117 0-9.9141-8.0898-18.117-18.117-18.117zm0 47.172c-15.949 0-28.941-12.988-28.941-28.941 0-15.949 12.988-28.941 28.941-28.941 15.949 0 28.941 12.988 28.941 28.941 0 15.949-12.988 28.941-28.941 28.941z" fill-rule="evenodd"/>
  <path d="m233.84 348.08h-11.621c-2.9609 0-5.3555-2.3945-5.3555-5.3555 0-2.9609 2.3945-5.3555 5.3555-5.3555h11.621c2.9609 0 5.3555 2.3945 5.3555 5.3555 0.11328 2.8477-2.2773 5.3555-5.3555 5.3555z" fill-rule="evenodd"/>
  <path d="m309.27 339.3h-5.9258c-2.9609 0-5.3555-2.3945-5.3555-5.3555 0-2.9609 2.3945-5.3555 5.3555-5.3555h5.9258c2.9609 0 5.3555 2.3945 5.3555 5.3555 0 2.8477-2.3906 5.3555-5.3555 5.3555z" fill-rule="evenodd"/>
  <path d="m144.17 339.88h-5.8086c-2.9609 0-5.3555-2.3945-5.3555-5.3555 0-2.9609 2.3945-5.3555 5.3555-5.3555h5.9258c2.9609 0 5.3555 2.3945 5.3555 5.3555-0.003906 2.9609-2.3945 5.3555-5.4727 5.3555z" fill-rule="evenodd"/>
  <path d="m149.98 382.71c-2.9609 0-5.3555-2.3945-5.3555-5.3555s2.3945-5.3555 5.3555-5.3555 5.3555 2.3945 5.3555 5.3555-2.3945 5.3555-5.3555 5.3555z" fill-rule="evenodd"/>
  <path d="m310.98 382.71c-2.9609 0-5.3555-2.3945-5.3555-5.3555s2.3945-5.3555 5.3555-5.3555c2.9609 0 5.3555 2.3945 5.3555 5.3555s-2.3945 5.3555-5.3555 5.3555z" fill-rule="evenodd"/>
  <path d="m166.62 288.38c-1.1406 0-2.1641 0.68359-2.5078 1.7109l-6.9492 18.801c-0.45703 1.1406 0 2.0508 0.34375 2.5078s1.0273 1.1406 2.2773 1.1406h30.762l-7.293-24.27zm30.992 34.977h-37.941c-4.4453 0-8.5469-2.1641-11.051-5.8125-2.5078-3.6445-3.0781-8.2031-1.5938-12.418l6.9492-18.801c1.9375-5.3555 6.9492-8.7734 12.648-8.7734h20.508c2.3945 0 4.4453 1.5938 5.1289 3.875l10.48 34.98c0.45703 1.5938 0.22656 3.418-0.79688 4.7852-1.0273 1.3672-2.6211 2.1641-4.332 2.1641zm22.789-10.824h42.84c1.5938 0 2.2773-1.1406 2.5078-1.7109 0.22656-0.45703 0.57031-1.8242-0.57031-2.9609l-19.371-18.801c-0.57031-0.57031-1.1406-0.79688-1.8242-0.79688h-30.648zm42.84 10.824h-46.828c-2.3945 0-4.4453-1.5938-5.1289-3.875l-10.48-34.98c-0.45703-1.5938-0.22656-3.418 0.79688-4.7852 1.0273-1.3672 2.6211-2.1641 4.3281-2.1641h37.941c3.5312 0 6.8359 1.3672 9.3438 3.7617l19.371 18.801c3.9883 3.875 5.2422 9.6836 3.0781 14.812-2.0547 5.1289-6.9531 8.4297-12.422 8.4297z" fill-rule="evenodd"/>
  <path d="m376.72 190.5c-0.91016 0-1.8242-0.22656-2.7344-0.68359l-183.78-106.08c-6.4961-3.7617-8.6602-11.965-4.8984-18.457l8.3164-14.355c1.8242-3.0781 4.6719-5.3555 8.2031-6.2656 3.5312-0.91016 7.1797-0.45703 10.254 1.3672l192.1 110.86c2.6211 1.4805 3.418 4.7852 1.9375 7.4062s-4.7852 3.418-7.4062 1.9375l-192.1-110.86c-0.79688-0.45703-1.5938-0.34375-2.0508-0.22656-0.45703 0.11328-1.1406 0.45703-1.5938 1.2539l-8.3164 14.238c-0.68359 1.2539-0.22656 2.9609 1.0273 3.6445l183.78 106.07c2.6211 1.4805 3.418 4.7852 1.9375 7.4062-1.0312 1.8242-2.8516 2.7383-4.6758 2.7383z" fill-rule="evenodd"/>
  <path d="m209 204.18c-11.508 0-20.965-9.3438-20.965-20.965 0-2.9609 2.3945-5.3555 5.3555-5.3555 2.9609 0 5.3555 2.3945 5.3555 5.3555 0 5.582 4.5586 10.141 10.141 10.141s10.141-4.5586 10.141-10.141c0-5.582-4.5586-10.141-10.141-10.141-2.9609 0-5.3555-2.3945-5.3555-5.3555v-79.414c0-2.9609 2.3945-5.3555 5.3555-5.3555s5.3555 2.3945 5.3555 5.3555v74.742c8.8867 2.3945 15.496 10.598 15.496 20.168 0.22656 11.621-9.2305 20.965-20.738 20.965z" fill-rule="evenodd"/>
  <path d="m300.38 462.47c-0.57031 0-1.0273 0.45703-1.0273 1.0273v15.266c0 0.57031 0.45703 1.0273 1.0273 1.0273h57.309c0.57031 0 1.0273-0.45703 1.0273-1.0273v-15.266c0-0.57031-0.45703-1.0273-1.0273-1.0273zm57.312 28.145h-57.309c-6.4961 0-11.848-5.3555-11.848-11.848v-15.266c0-6.4961 5.3555-11.848 11.848-11.848h57.309c6.4961 0 11.848 5.3555 11.848 11.848v15.266c-0.11328 6.4922-5.3555 11.848-11.848 11.848z" fill-rule="evenodd"/>
  <path d="m209 74.742c-2.9609 0-5.3555-2.3945-5.3555-5.3555 0-2.9609 2.3945-5.3555 5.3555-5.3555 2.9609 0 5.3555 2.3945 5.3555 5.3555 0 2.8477-2.3945 5.3555-5.3555 5.3555z" fill-rule="evenodd"/>

 </g>
</svg>
