<?xml version="1.0" encoding="UTF-8"?>
<svg width="700pt" height="700pt" version="1.1" viewBox="0 0 700 700" xmlns="http://www.w3.org/2000/svg" xmlns:xlink="http://www.w3.org/1999/xlink">
 <defs>
  <symbol id="s" overflow="visible">
   <path d="m18.766-1.125c-0.96875 0.5-1.9805 0.875-3.0312 1.125-1.043 0.25781-2.1367 0.39062-3.2812 0.39062-3.3984 0-6.0898-0.94531-8.0781-2.8438-1.9922-1.9062-2.9844-4.4844-2.9844-7.7344 0-3.2578 0.99219-5.8359 2.9844-7.7344 1.9883-1.9062 4.6797-2.8594 8.0781-2.8594 1.1445 0 2.2383 0.13281 3.2812 0.39062 1.0508 0.25 2.0625 0.625 3.0312 1.125v4.2188c-0.98047-0.65625-1.9453-1.1406-2.8906-1.4531-0.94922-0.3125-1.9492-0.46875-3-0.46875-1.875 0-3.3516 0.60547-4.4219 1.8125-1.0742 1.1992-1.6094 2.8555-1.6094 4.9688 0 2.1055 0.53516 3.7617 1.6094 4.9688 1.0703 1.1992 2.5469 1.7969 4.4219 1.7969 1.0508 0 2.0508-0.14844 3-0.45312 0.94531-0.3125 1.9102-0.80078 2.8906-1.4688z"/>
  </symbol>
  <symbol id="c" overflow="visible">
   <path d="m13.734-11.141c-0.4375-0.19531-0.87109-0.34375-1.2969-0.4375-0.41797-0.10156-0.83984-0.15625-1.2656-0.15625-1.2617 0-2.2305 0.40625-2.9062 1.2188-0.67969 0.80469-1.0156 1.9531-1.0156 3.4531v7.0625h-4.8906v-15.312h4.8906v2.5156c0.625-1 1.3438-1.7266 2.1562-2.1875 0.82031-0.46875 1.8008-0.70312 2.9375-0.70312 0.16406 0 0.34375 0.011719 0.53125 0.03125 0.19531 0.011719 0.47656 0.039062 0.84375 0.078125z"/>
  </symbol>
  <symbol id="b" overflow="visible">
   <path d="m17.641-7.7031v1.4062h-11.453c0.125 1.1484 0.53906 2.0078 1.25 2.5781 0.70703 0.57422 1.7031 0.85938 2.9844 0.85938 1.0312 0 2.082-0.14844 3.1562-0.45312 1.082-0.3125 2.1914-0.77344 3.3281-1.3906v3.7656c-1.1562 0.4375-2.3125 0.76562-3.4688 0.98438-1.1562 0.22656-2.3125 0.34375-3.4688 0.34375-2.7734 0-4.9297-0.70312-6.4688-2.1094-1.5312-1.4062-2.2969-3.3789-2.2969-5.9219 0-2.5 0.75391-4.4609 2.2656-5.8906 1.5078-1.4375 3.582-2.1562 6.2188-2.1562 2.4062 0 4.332 0.73047 5.7812 2.1875 1.4453 1.4492 2.1719 3.3828 2.1719 5.7969zm-5.0312-1.625c0-0.92578-0.27344-1.6719-0.8125-2.2344-0.54297-0.57031-1.25-0.85938-2.125-0.85938-0.94922 0-1.7188 0.26562-2.3125 0.79688s-0.96484 1.2969-1.1094 2.2969z"/>
  </symbol>
  <symbol id="e" overflow="visible">
   <path d="m9.2188-6.8906c-1.0234 0-1.793 0.17188-2.3125 0.51562-0.51172 0.34375-0.76562 0.85547-0.76562 1.5312 0 0.625 0.20703 1.1172 0.625 1.4688 0.41406 0.34375 0.98828 0.51562 1.7188 0.51562 0.92578 0 1.7031-0.32812 2.3281-0.98438 0.63281-0.66406 0.95312-1.4922 0.95312-2.4844v-0.5625zm7.4688-1.8438v8.7344h-4.9219v-2.2656c-0.65625 0.92969-1.3984 1.6055-2.2188 2.0312-0.82422 0.41406-1.8242 0.625-3 0.625-1.5859 0-2.8711-0.45703-3.8594-1.375-0.99219-0.92578-1.4844-2.1289-1.4844-3.6094 0-1.7891 0.61328-3.1016 1.8438-3.9375 1.2383-0.84375 3.1797-1.2656 5.8281-1.2656h2.8906v-0.39062c0-0.76953-0.30859-1.332-0.92188-1.6875-0.61719-0.36328-1.5703-0.54688-2.8594-0.54688-1.0547 0-2.0312 0.10547-2.9375 0.3125-0.89844 0.21094-1.7305 0.52344-2.5 0.9375v-3.7344c1.0391-0.25 2.0859-0.44141 3.1406-0.57812 1.0625-0.13281 2.125-0.20312 3.1875-0.20312 2.7578 0 4.75 0.54688 5.9688 1.6406 1.2266 1.0859 1.8438 2.8555 1.8438 5.3125z"/>
  </symbol>
  <symbol id="a" overflow="visible">
   <path d="m7.7031-19.656v4.3438h5.0469v3.5h-5.0469v6.5c0 0.71094 0.14062 1.1875 0.42188 1.4375s0.83594 0.375 1.6719 0.375h2.5156v3.5h-4.1875c-1.9375 0-3.3125-0.39844-4.125-1.2031-0.80469-0.8125-1.2031-2.1797-1.2031-4.1094v-6.5h-2.4219v-3.5h2.4219v-4.3438z"/>
  </symbol>
  <symbol id="i" overflow="visible">
   <path d="m12.766-13.078v-8.2031h4.9219v21.281h-4.9219v-2.2188c-0.66797 0.90625-1.4062 1.5703-2.2188 1.9844s-1.7578 0.625-2.8281 0.625c-1.8867 0-3.4336-0.75-4.6406-2.25-1.2109-1.5-1.8125-3.4258-1.8125-5.7812 0-2.3633 0.60156-4.2969 1.8125-5.7969 1.207-1.5 2.7539-2.25 4.6406-2.25 1.0625 0 2 0.21484 2.8125 0.64062 0.82031 0.42969 1.5664 1.0859 2.2344 1.9688zm-3.2188 9.9219c1.0391 0 1.8359-0.37891 2.3906-1.1406 0.55078-0.76953 0.82812-1.8828 0.82812-3.3438 0-1.457-0.27734-2.5664-0.82812-3.3281-0.55469-0.76953-1.3516-1.1562-2.3906-1.1562-1.043 0-1.8398 0.38672-2.3906 1.1562-0.55469 0.76172-0.82812 1.8711-0.82812 3.3281 0 1.4609 0.27344 2.5742 0.82812 3.3438 0.55078 0.76172 1.3477 1.1406 2.3906 1.1406z"/>
  </symbol>
  <symbol id="h" overflow="visible">
   <path d="m10.5-3.1562c1.0508 0 1.8516-0.37891 2.4062-1.1406 0.55078-0.76953 0.82812-1.8828 0.82812-3.3438 0-1.457-0.27734-2.5664-0.82812-3.3281-0.55469-0.76953-1.3555-1.1562-2.4062-1.1562-1.0547 0-1.8594 0.38672-2.4219 1.1562-0.55469 0.77344-0.82812 1.8828-0.82812 3.3281 0 1.4492 0.27344 2.5586 0.82812 3.3281 0.5625 0.77344 1.3672 1.1562 2.4219 1.1562zm-3.25-9.9219c0.67578-0.88281 1.4219-1.5391 2.2344-1.9688 0.82031-0.42578 1.7656-0.64062 2.8281-0.64062 1.8945 0 3.4453 0.75 4.6562 2.25 1.207 1.5 1.8125 3.4336 1.8125 5.7969 0 2.3555-0.60547 4.2812-1.8125 5.7812-1.2109 1.5-2.7617 2.25-4.6562 2.25-1.0625 0-2.0078-0.21094-2.8281-0.625-0.8125-0.42578-1.5586-1.0859-2.2344-1.9844v2.2188h-4.8906v-21.281h4.8906z"/>
  </symbol>
  <symbol id="g" overflow="visible">
   <path d="m0.34375-15.312h4.8906l4.125 10.391 3.5-10.391h4.8906l-6.4375 16.766c-0.64844 1.6953-1.4023 2.8828-2.2656 3.5625-0.86719 0.6875-2 1.0312-3.4062 1.0312h-2.8438v-3.2188h1.5312c0.83203 0 1.4375-0.13672 1.8125-0.40625 0.38281-0.26172 0.67969-0.73047 0.89062-1.4062l0.14062-0.42188z"/>
  </symbol>
  <symbol id="f" overflow="visible">
   <path d="m3.2812-3.6406h4.6562v-13.188l-4.7812 0.98438v-3.5781l4.75-0.98438h5v16.766h4.6562v3.6406h-14.281z"/>
  </symbol>
  <symbol id="r" overflow="visible">
   <path d="m12.422-21.281v3.2188h-2.7031c-0.6875 0-1.1719 0.125-1.4531 0.375-0.27344 0.25-0.40625 0.6875-0.40625 1.3125v1.0625h4.1875v3.5h-4.1875v11.812h-4.8906v-11.812h-2.4375v-3.5h2.4375v-1.0625c0-1.6641 0.46094-2.8984 1.3906-3.7031 0.92578-0.80078 2.3672-1.2031 4.3281-1.2031z"/>
  </symbol>
  <symbol id="d" overflow="visible">
   <path d="m9.6406-12.188c-1.0859 0-1.9141 0.39062-2.4844 1.1719-0.57422 0.78125-0.85938 1.9062-0.85938 3.375s0.28516 2.5938 0.85938 3.375c0.57031 0.77344 1.3984 1.1562 2.4844 1.1562 1.0625 0 1.875-0.38281 2.4375-1.1562 0.57031-0.78125 0.85938-1.9062 0.85938-3.375s-0.28906-2.5938-0.85938-3.375c-0.5625-0.78125-1.375-1.1719-2.4375-1.1719zm0-3.5c2.6328 0 4.6914 0.71484 6.1719 2.1406 1.4766 1.418 2.2188 3.3867 2.2188 5.9062 0 2.5117-0.74219 4.4805-2.2188 5.9062-1.4805 1.418-3.5391 2.125-6.1719 2.125-2.6484 0-4.7148-0.70703-6.2031-2.125-1.4922-1.4258-2.2344-3.3945-2.2344-5.9062 0-2.5195 0.74219-4.4883 2.2344-5.9062 1.4883-1.4258 3.5547-2.1406 6.2031-2.1406z"/>
  </symbol>
  <symbol id="q" overflow="visible">
   <path d="m16.547-12.766c0.61328-0.94531 1.3477-1.6719 2.2031-2.1719 0.85156-0.5 1.7891-0.75 2.8125-0.75 1.7578 0 3.0977 0.54688 4.0156 1.6406 0.92578 1.0859 1.3906 2.6562 1.3906 4.7188v9.3281h-4.9219v-7.9844-0.35938c0.007813-0.13281 0.015625-0.32031 0.015625-0.5625 0-1.082-0.16406-1.8633-0.48438-2.3438-0.3125-0.48828-0.82422-0.73438-1.5312-0.73438-0.92969 0-1.6484 0.38672-2.1562 1.1562-0.51172 0.76172-0.77344 1.8672-0.78125 3.3125v7.5156h-4.9219v-7.9844c0-1.6953-0.14844-2.7852-0.4375-3.2656-0.29297-0.48828-0.8125-0.73438-1.5625-0.73438-0.9375 0-1.6641 0.38672-2.1719 1.1562-0.51172 0.76172-0.76562 1.8594-0.76562 3.2969v7.5312h-4.9219v-15.312h4.9219v2.2344c0.60156-0.86328 1.2891-1.5156 2.0625-1.9531 0.78125-0.4375 1.6406-0.65625 2.5781-0.65625 1.0625 0 2 0.25781 2.8125 0.76562 0.8125 0.51172 1.4258 1.2305 1.8438 2.1562z"/>
  </symbol>
  <symbol id="p" overflow="visible">
   <path d="m17.75-9.3281v9.3281h-4.9219v-7.1094c0-1.3438-0.03125-2.2656-0.09375-2.7656s-0.16797-0.86719-0.3125-1.1094c-0.1875-0.3125-0.44922-0.55469-0.78125-0.73438-0.32422-0.17578-0.69531-0.26562-1.1094-0.26562-1.0234 0-1.8242 0.39844-2.4062 1.1875-0.58594 0.78125-0.875 1.8711-0.875 3.2656v7.5312h-4.8906v-21.281h4.8906v8.2031c0.73828-0.88281 1.5195-1.5391 2.3438-1.9688 0.83203-0.42578 1.75-0.64062 2.75-0.64062 1.7695 0 3.1133 0.54688 4.0312 1.6406 0.91406 1.0859 1.375 2.6562 1.375 4.7188z"/>
  </symbol>
  <symbol id="o" overflow="visible">
   <path d="m2.5781-20.406h5.875l7.4219 14v-14h4.9844v20.406h-5.875l-7.4219-14v14h-4.9844z"/>
  </symbol>
  <symbol id="n" overflow="visible">
   <path d="m2.1875-5.9688v-9.3438h4.9219v1.5312c0 0.83594-0.007813 1.875-0.015625 3.125-0.011719 1.25-0.015625 2.0859-0.015625 2.5 0 1.2422 0.03125 2.1328 0.09375 2.6719 0.070313 0.54297 0.17969 0.93359 0.32812 1.1719 0.20703 0.32422 0.47266 0.57422 0.79688 0.75 0.32031 0.16797 0.69141 0.25 1.1094 0.25 1.0195 0 1.8203-0.39062 2.4062-1.1719 0.58203-0.78125 0.875-1.8672 0.875-3.2656v-7.5625h4.8906v15.312h-4.8906v-2.2188c-0.74219 0.89844-1.5234 1.5586-2.3438 1.9844-0.82422 0.41406-1.7344 0.625-2.7344 0.625-1.7617 0-3.1055-0.53906-4.0312-1.625-0.92969-1.082-1.3906-2.6602-1.3906-4.7344z"/>
  </symbol>
  <symbol id="m" overflow="visible">
   <path d="m17.75-9.3281v9.3281h-4.9219v-7.1406c0-1.3203-0.03125-2.2344-0.09375-2.7344s-0.16797-0.86719-0.3125-1.1094c-0.1875-0.3125-0.44922-0.55469-0.78125-0.73438-0.32422-0.17578-0.69531-0.26562-1.1094-0.26562-1.0234 0-1.8242 0.39844-2.4062 1.1875-0.58594 0.78125-0.875 1.8711-0.875 3.2656v7.5312h-4.8906v-15.312h4.8906v2.2344c0.73828-0.88281 1.5195-1.5391 2.3438-1.9688 0.83203-0.42578 1.75-0.64062 2.75-0.64062 1.7695 0 3.1133 0.54688 4.0312 1.6406 0.91406 1.0859 1.375 2.6562 1.375 4.7188z"/>
  </symbol>
  <symbol id="l" overflow="visible">
   <path d="m2.5781-20.406h8.7344c2.5938 0 4.582 0.57812 5.9688 1.7344 1.3945 1.1484 2.0938 2.7891 2.0938 4.9219 0 2.1367-0.69922 3.7812-2.0938 4.9375-1.3867 1.1562-3.375 1.7344-5.9688 1.7344h-3.4844v7.0781h-5.25zm5.25 3.8125v5.7031h2.9219c1.0195 0 1.8047-0.25 2.3594-0.75 0.5625-0.5 0.84375-1.2031 0.84375-2.1094 0-0.91406-0.28125-1.6172-0.84375-2.1094-0.55469-0.48828-1.3398-0.73438-2.3594-0.73438z"/>
  </symbol>
  <symbol id="k" overflow="visible">
   <path d="m2.3594-15.312h4.8906v15.031c0 2.0508-0.49609 3.6172-1.4844 4.7031-0.98047 1.082-2.4062 1.625-4.2812 1.625h-2.4219v-3.2188h0.85938c0.92578 0 1.5625-0.21094 1.9062-0.625 0.35156-0.41797 0.53125-1.2461 0.53125-2.4844zm0-5.9688h4.8906v4h-4.8906z"/>
  </symbol>
  <symbol id="j" overflow="visible">
   <path d="m14.719-14.828v3.9844c-0.65625-0.45703-1.3242-0.79688-2-1.0156-0.66797-0.21875-1.3594-0.32812-2.0781-0.32812-1.3672 0-2.4336 0.40234-3.2031 1.2031-0.76172 0.79297-1.1406 1.9062-1.1406 3.3438 0 1.4297 0.37891 2.543 1.1406 3.3438 0.76953 0.79297 1.8359 1.1875 3.2031 1.1875 0.75781 0 1.4844-0.10938 2.1719-0.32812 0.6875-0.22656 1.3203-0.56641 1.9062-1.0156v4c-0.76172 0.28125-1.5391 0.48828-2.3281 0.625-0.78125 0.14453-1.5742 0.21875-2.375 0.21875-2.7617 0-4.9219-0.70703-6.4844-2.125-1.5547-1.4141-2.3281-3.3828-2.3281-5.9062 0-2.5312 0.77344-4.5039 2.3281-5.9219 1.5625-1.4141 3.7227-2.125 6.4844-2.125 0.80078 0 1.5938 0.074219 2.375 0.21875 0.78125 0.13672 1.5547 0.35156 2.3281 0.64062z"/>
  </symbol>
 </defs>
 <g>
  <path d="m569.52 297.27c0-0.98438 0-2-0.027344-3.0195l4.5039-2.9805c-0.37891-10.504-1.7461-20.82-4.0312-30.723l-5.1133-1.5898c-0.47656-1.9023-0.98438-3.8086-1.5586-5.6797l3.5898-4.0586c-3.0742-10-7.1055-19.582-11.938-28.66l-5.332-0.22266c-0.95312-1.6797-1.9023-3.3672-2.9219-5.0195l2.4062-4.8594c-5.5547-8.793-11.898-17.039-18.949-24.602l-5.207 1.2031c-1.332-1.3672-2.6992-2.7617-4.0977-4.1289l1.082-5.3047c-7.5898-7.0508-15.871-13.395-24.695-18.918l-4.7266 2.5078c-1.6523-1.0469-3.2969-2-5.0117-2.9531l-0.32031-5.3984c-9.0781-4.8203-18.66-8.8242-28.66-11.898h-0.027343l-3.9023 3.6523c-1.875-0.52344-3.7773-1.0664-5.6836-1.5078l-1.7461-5.1406c-9.9336-2.2578-20.223-3.6172-30.727-3.9648l-2.8555 4.5039c-0.95312-0.027343-1.9023-0.027343-2.8555-0.027343-0.98438 0-2 0-3.0195 0.027343l-2.9805-4.5039c-10.504 0.37891-20.82 1.7461-30.723 4.0312l-1.5898 5.1055c-1.9375 0.47656-3.8086 0.98438-5.6797 1.5586l-4.0586-3.5898c-10 3.0742-19.582 7.1055-28.66 11.938l-0.22266 5.332c-1.7148 0.95312-3.3672 1.9023-5.0195 2.9219l-4.8594-2.4141c-8.0195 5.0664-15.578 10.793-22.578 17.129l0.003907-37.246c0-14.387-7.7227-26.965-19.254-33.812-5.8594-3.4844-12.719-5.4805-20.027-5.4805h-16.586v5.4766h-8.7422s-0.011719 0-0.023438-0.011719v-5.4648h-17.516v5.4766h-10.953v-5.4805h-17.527v5.4648c-0.011718 0.011719-0.023437 0.011719-0.023437 0.011719h-8.7422v-5.4805h-16.586c-7.3086 0-14.168 1.9922-20.027 5.4766-11.535 6.8438-19.266 19.422-19.266 33.809l-0.050781 271.99c0 14.387 7.7227 26.965 19.254 33.812 5.8594 3.4844 12.719 5.4805 20.027 5.4805l16.586 0.003906v-5.4805h8.7656v5.4805h17.535v-5.4766h10.953v5.4766l17.535 0.003907v-5.4766h8.7656v5.4805h16.586c7.3086 0 14.168-1.9922 20.031-5.4766 9.5703-5.6797 16.516-15.305 18.609-26.641 7.2812 6.6133 15.16 12.621 23.566 17.879l4.7266-2.5078c1.6523 1.0547 3.2969 2 5.0195 2.9531l0.32031 5.3984c9.0781 4.8203 18.699 8.8242 28.688 11.871l3.9023-3.6172c1.9023 0.53906 3.7812 1.082 5.6797 1.5234l1.7461 5.1406c9.9688 2.2578 20.223 3.6172 30.754 3.9648l2.8555-4.5039c0.95312 0.027344 1.9023 0.027344 2.8281 0.027344 1.0117 0 2.0312 0 3.0469-0.027344l2.9805 4.5039c10.504-0.37891 20.793-1.7461 30.695-4.0312l1.5898-5.1133c1.9375-0.47656 3.8398-0.98438 5.6797-1.5508l4.0586 3.6172h0.027344c10-3.1133 19.551-7.1055 28.633-11.969l0.22266-5.332c1.7148-0.95312 3.3672-1.9023 5.0195-2.9531l4.8594 2.4414c8.8242-5.5547 17.078-11.898 24.629-18.977l-1.2031-5.207c1.3672-1.332 2.7617-2.6992 4.0977-4.0977l5.3047 1.082c7.0508-7.5898 13.395-15.836 18.918-24.664l-2.5078-4.6992c1.0469-1.6797 2.0312-3.3672 2.9531-5.0469l5.3984-0.32031c4.8203-9.1094 8.8242-18.66 11.898-28.66v-0.027344l-3.6523-3.9023c0.53906-1.8711 1.082-3.8086 1.5234-5.6797l5.1406-1.7461c2.2578-9.9336 3.6172-20.184 3.9648-30.723l-4.5039-2.8555c0.007813-0.94531 0.007813-1.8984 0.007813-2.8516zm-404.18-181.38h4.9609c-7.8359 3.1875-14.516 4.7227-19.68 5.3984 3.9805-3.3594 9.1055-5.3984 14.719-5.3984zm16.535 317.71h-16.586c-2.9922 0-5.8477-0.58203-8.4688-1.6367-0.011718-0.003906-0.015625-0.003906-0.023437-0.011719 3.5508-0.82422 6.9219-1.8867 10.098-3.1484 5.6094-2.207 10.617-4.9727 14.98-7.8867zm0.003906-17.57c-9.8516 5.4766-18.473 8.4219-25.367 9.9453h-0.027343c-2.6094 0.58203-4.957 0.96484-7.043 1.1992-3.4375-3.3086-5.8398-7.6836-6.668-12.59v-0.011719c15.98-0.28125 29.203-6.1328 39.117-12.75zm0-19.113c-18.762 10.434-33.078 11.641-39.441 11.523v-12.957c16.133-0.20312 29.461-6.0977 39.441-12.762zm0-19.109c-18.762 10.434-33.078 11.641-39.441 11.523l0.003906-12.957c16.133-0.20312 29.461-6.0977 39.441-12.762zm0.007812-19.113c-18.762 10.434-33.078 11.641-39.441 11.523v-12.957c16.133-0.20312 29.461-6.0977 39.441-12.762zm0-19.105c-18.762 10.434-33.078 11.641-39.441 11.523l0.003906-12.957c16.133-0.20312 29.461-6.0977 39.441-12.762zm0.003907-19.109c-18.762 10.434-33.078 11.641-39.441 11.523v-12.957c16.133-0.20312 29.461-6.0977 39.441-12.762zm0-19.109c-18.762 10.434-33.078 11.641-39.441 11.523v-12.957c16.133-0.20312 29.461-6.0977 39.441-12.762zm0.007812-19.109c-18.762 10.434-33.078 11.641-39.441 11.523v-12.957c16.133-0.20312 29.461-6.0977 39.441-12.762zm0.003907-19.105c-18.762 10.434-33.078 11.641-39.441 11.523v-12.957c16.133-0.20312 29.461-6.0977 39.441-12.762zm0-19.113c-18.762 10.434-33.078 11.641-39.441 11.523v-12.957c16.133-0.20312 29.461-6.0977 39.441-12.762zm0.007812-19.109c-18.762 10.434-33.078 11.641-39.441 11.523v-12.957c16.133-0.20312 29.461-6.0977 39.441-12.762zm0.003906-19.105c-18.762 10.434-33.078 11.641-39.441 11.523v-12.957c16.133-0.20312 29.461-6.0977 39.441-12.762zm0-19.113c-18.762 10.434-33.078 11.641-39.441 11.523v-12.957c16.133-0.20312 29.461-6.0977 39.441-12.762zm0.003906-19.105c-18.762 10.434-33.078 11.641-39.441 11.523v-12.957c16.133-0.20312 29.461-6.0977 39.441-12.762zm0.007813-19.113c-18.762 10.434-33.078 11.641-39.441 11.523v-12.957c16.133-0.20312 29.461-6.0977 39.441-12.762zm0-19.109c-18.762 10.434-33.078 11.641-39.441 11.523v-2.1719c0-3.9297 1.0039-7.6445 2.7617-10.879 14.34-0.76562 26.348-5.9805 35.621-11.969h1.0625zm8.7656-13.5h10.961c-3.7617 3.0703-7.4258 5.7578-10.965 8.125zm17.477 317.72-17.535-0.003906v-0.24609c1.793-1.5469 3.4258-3.0625 4.7891-4.4531 4.6484-4.5859 7.0742-7.9961 7.0742-7.9961-3.6289 2.9922-7.168 5.6328-10.578 7.9961-0.42969 0.30078-0.85547 0.58203-1.2812 0.875v-15.523c7.7109-6.6484 11.859-12.441 11.859-12.441-4.082 3.375-8.043 6.2891-11.859 8.8477v-15.5c7.707-6.6523 11.859-12.449 11.859-12.449-4.082 3.375-8.043 6.2891-11.859 8.8477l0.003907-15.508c7.707-6.6523 11.859-12.449 11.859-12.449-4.082 3.3711-8.043 6.2891-11.859 8.8477v-15.508c7.707-6.6523 11.859-12.449 11.859-12.449-4.082 3.3711-8.043 6.2891-11.859 8.8477v-15.508c7.707-6.6523 11.859-12.449 11.859-12.449-4.082 3.3711-8.043 6.2891-11.859 8.8477v-15.508c7.707-6.6523 11.859-12.449 11.859-12.449-4.082 3.3711-8.043 6.2891-11.859 8.8477v-15.508c7.707-6.6523 11.859-12.449 11.859-12.449-4.082 3.3711-8.043 6.2891-11.859 8.8477l0.023437-15.512c7.707-6.6523 11.859-12.449 11.859-12.449-4.082 3.3711-8.043 6.2891-11.859 8.8477v-15.508c7.707-6.6523 11.859-12.449 11.859-12.449-4.082 3.3711-8.043 6.2891-11.859 8.8477v-15.508c7.707-6.6523 11.859-12.449 11.859-12.449-4.082 3.3711-8.043 6.2891-11.859 8.8477v-15.508c7.707-6.6523 11.859-12.449 11.859-12.449-4.082 3.3711-8.043 6.2891-11.859 8.8477v-15.508c7.707-6.6523 11.859-12.449 11.859-12.449-4.082 3.3711-8.043 6.2891-11.859 8.8477v-15.508c7.707-6.6523 11.859-12.449 11.859-12.449-4.082 3.3711-8.043 6.2891-11.859 8.8477v-15.508c7.707-6.6523 11.859-12.449 11.859-12.449-4.082 3.3711-8.043 6.2891-11.859 8.8477v-15.508c7.707-6.6523 11.859-12.449 11.859-12.449-4.082 3.3711-8.043 6.2891-11.859 8.8477l0.003906-15.508c6.1094-5.2656 9.9727-9.9922 11.316-11.727h6.2109zm28.535-290.48c-3.8242-2.5586-7.7734-5.4766-11.855-8.8477 0 0 4.1484 5.8008 11.855 12.453v15.508c-3.8242-2.5586-7.7734-5.4766-11.855-8.8477 0 0 4.1484 5.8008 11.855 12.453v15.508c-3.8242-2.5586-7.7734-5.4766-11.855-8.8477 0 0 4.1484 5.8008 11.855 12.453l-0.003907 15.508c-3.8203-2.5586-7.7734-5.4766-11.855-8.8477 0 0 4.1484 5.8008 11.855 12.453v15.508c-3.8242-2.5586-7.7734-5.4766-11.855-8.8477 0 0 4.1484 5.8008 11.855 12.453v15.508c-3.8242-2.5586-7.7734-5.4766-11.855-8.8477 0 0 4.1484 5.8008 11.855 12.453v15.508c-3.8242-2.5586-7.7734-5.4766-11.855-8.8477 0 0 4.1484 5.8008 11.855 12.453v15.508c-3.8242-2.5586-7.7734-5.4766-11.855-8.8477 0 0 4.1484 5.8008 11.855 12.453l-0.003906 15.508c-3.8242-2.5586-7.7734-5.4766-11.855-8.8477 0 0 4.1484 5.8008 11.855 12.453v15.508c-3.8242-2.5586-7.7734-5.4766-11.855-8.8477 0 0 4.1484 5.8008 11.855 12.453v15.508c-3.8242-2.5586-7.7734-5.4766-11.855-8.8477 0 0 4.1484 5.8008 11.855 12.453l-0.003906 15.508c-3.8242-2.5586-7.7734-5.4766-11.855-8.8477 0 0 4.1484 5.8008 11.855 12.453l-0.003906 15.508c-3.8242-2.5586-7.7734-5.4766-11.855-8.8477 0 0 4.1484 5.8008 11.855 12.453v15.508c-3.8242-2.5586-7.7734-5.4766-11.855-8.8477 0 0 4.1484 5.8008 11.855 12.453l-0.023438 15.434c-3.8203-2.5586-7.7734-5.4766-11.855-8.8477 0 0 4.1484 5.8008 11.855 12.449v15.5c-0.42969-0.29297-0.85156-0.54688-1.2812-0.83984-0.32031-0.22266-0.66797-0.47656-1.0195-0.69922-3.0898-2.168-6.2734-4.5938-9.5547-7.2969 0 0 2.418 3.4102 7.0664 7.9961 0.73438 0.76562 1.5898 1.5898 2.4883 2.3906 0.72656 0.67578 1.5 1.3672 2.3086 2.0625v0.24609l-17.535-0.003906 0.050782-317.71h6.2109c1.3438 1.7344 5.2148 6.4609 11.312 11.73zm0-19.105c-3.5391-2.3672-7.1953-5.0625-10.961-8.1328h10.961zm25.352-8.1211c5.6094 0 10.734 2.0391 14.711 5.4023-5.1641-0.68359-11.844-2.2188-19.68-5.4023zm-16.598 75.73c8.25 5.5156 18.789 10.5 31.316 12.176-1.5898 2.2695-3.1211 4.5859-4.5938 6.9336l2.5078 4.7266c-0.20312 0.32031-0.39844 0.64453-0.59766 0.96484-7.3477-1.2891-17.16-4.2188-28.637-10.605zm-0.003906 19.113c5.9375 3.9648 13.055 7.6602 21.242 10.047l-0.35938 0.023437c-1.9414 3.6523-3.7422 7.3906-5.4102 11.211-4.7031-1.6797-9.8906-3.9648-15.473-7.0742zm-0.007813 19.105c3.9414 2.6328 8.4062 5.1445 13.367 7.2344-1.5 3.793-2.8672 7.6484-4.0898 11.574-2.9531-1.2891-6.0469-2.8125-9.2773-4.6094zm0 19.109c3.5859 2.3984 7.5938 4.6875 12.02 6.6523-0.32422 1.1641-0.63281 2.3242-0.90625 3.4727l-5.1406 1.7461c-0.37109 1.6367-0.71094 3.2773-1.0352 4.9219-1.6055-0.79688-3.2539-1.6523-4.9453-2.5938zm-0.003906 19.109c1.3008 0.86719 2.6602 1.7266 4.0664 2.5547-0.69922 4.2773-1.2383 8.6016-1.5977 12.977-0.81641-0.42578-1.6367-0.86719-2.4766-1.332zm0 19.109c0.69531 0.46875 1.4102 0.92578 2.1406 1.3828-0.050781 1.0078-0.10156 2.0117-0.12891 3.0234l4.5039 2.8555c-0.027344 0.95312-0.027344 1.9023-0.027344 2.8281 0 1.0117 0 2.0312 0.027344 3.0469l-3.8086 2.5195c-0.89453-0.46875-1.7969-0.94531-2.7109-1.457zm0 19.113c0.72656 0.48828 1.4727 0.96484 2.2344 1.4453 0.3125 4.9961 0.85156 9.9336 1.6016 14.801-1.2617-0.63672-2.5352-1.3164-3.8398-2.0391zm-0.007812 19.105c1.5469 1.0312 3.1641 2.0391 4.8594 3.0195 0.36328 1.8711 0.75781 3.7344 1.1875 5.5781l5.1133 1.5898c0.44141 1.9023 0.98438 3.8359 1.5508 5.6797l-2.8398 3.207c-3.1289-1.3438-6.4297-2.9531-9.8789-4.8711zm0 19.109c3.2578 2.1797 6.875 4.2773 10.836 6.1133 1.8828 5.3984 4.0391 10.656 6.4414 15.781-5.1758-1.7266-10.969-4.1875-17.277-7.6953zm-0.003907 19.113c5.8359 3.8984 12.82 7.5312 20.832 9.9219 0.078126 0.15234 0.15625 0.29688 0.23438 0.44922l1.5273 0.054687c1.3945 0.375 2.8164 0.71094 4.2656 1.0078 0.80078 1.4102 1.6133 2.8125 2.457 4.207l-2.4141 4.8203c0.96484 1.5391 1.9609 3.0508 2.9805 4.5469-7.4648-1.1641-17.746-4.0547-29.887-10.812zm25.043 68.363c-2.6211 1.0547-5.4805 1.6367-8.4688 1.6367h-16.586v-12.68c4.3672 2.918 9.375 5.6836 14.98 7.8906 3.168 1.2617 6.5469 2.3281 10.098 3.1523-0.011719-0.007813-0.019532-0.007813-0.023438 0zm14.062-17.379c-0.82812 4.9062-3.2305 9.2773-6.668 12.582-2.082-0.24609-4.4336-0.61719-7.043-1.2031h-0.027343c-6.8867-1.5273-15.52-4.4688-25.363-9.957v-14.203c9.9062 6.6211 23.129 12.477 39.109 12.77-0.007812 0.007812-0.007812 0.011719-0.007812 0.011719zm0.32422-6.1484c-6.3672 0.11719-20.676-1.0977-39.441-11.535v-14.203c8.9648 5.9922 20.641 11.355 34.629 12.539 1.5586 2.0664 3.1602 4.0977 4.8086 6.0859zm0.039062-215.32c-1.3672 1.6445-2.6953 3.3203-3.9922 5.0234-7.4531-0.47656-19.926-2.8008-35.449-11.434v-14.203c9.9727 6.6641 23.309 12.566 39.441 12.777zm0-13.988c-6.3672 0.11719-20.676-1.0977-39.441-11.535v-14.203c9.9727 6.6641 23.309 12.566 39.441 12.777zm0-19.105c-6.3672 0.11719-20.68-1.0977-39.441-11.535v-14.203c9.9727 6.6641 23.309 12.566 39.441 12.777zm0.003907-19.113c-6.3672 0.11719-20.68-1.0977-39.441-11.535v-13.5h1.0625c9.2695 5.9922 21.273 11.211 35.617 11.984 1.7656 3.2305 2.7539 6.9492 2.7539 10.879l0.003906 2.1719zm125.82 264.26c-59.512 0-107.92-48.402-107.92-107.92s48.402-107.92 107.92-107.92 107.92 48.402 107.92 107.92c0 59.52-48.402 107.92-107.92 107.92zm61.453-180.57c-14.695-12.477-33.203-20.57-53.512-22.188-2.6055-0.28516-5.2695-0.37891-7.9336-0.37891-2.6641 0-5.332 0.09375-7.9336 0.37891-20.312 1.6172-38.82 9.7109-53.512 22.188-4.0586 3.3945-7.8125 7.1445-11.207 11.207-12.477 14.695-20.57 33.203-22.188 53.512-0.28516 2.6055-0.37891 5.2656-0.37891 7.9336 0 2.6641 0.09375 5.332 0.37891 7.9336 1.6172 20.312 9.7109 38.812 22.188 53.512 3.3945 4.0586 7.1445 7.8125 11.207 11.207 14.695 12.477 33.203 20.57 53.512 22.188 2.6055 0.28516 5.2656 0.37891 7.9336 0.37891 2.6719 0 5.332-0.09375 7.9336-0.37891 20.312-1.6172 38.812-9.7109 53.512-22.188 4.0586-3.3945 7.8125-7.1445 11.207-11.207 12.477-14.695 20.57-33.203 22.188-53.512 0.28516-2.6055 0.37891-5.2695 0.37891-7.9336 0-2.6641-0.09375-5.332-0.37891-7.9336-1.6172-20.312-9.7109-38.82-22.188-53.512-3.3984-4.0625-7.1445-7.8086-11.207-11.207zm-53.516-6.2852c15.965 1.5586 30.504 7.9062 42.246 17.523l-35.203 35.23-0.027343 0.027343c-2.1914-1.2383-4.543-2.2188-7.0117-2.9219-0.003906 0.003906-0.003906-49.859-0.003906-49.859zm-15.867 0v49.863c-2.4766 0.69531-4.8203 1.6797-7.0117 2.9219l-0.027344-0.027344-35.203-35.23c11.738-9.6211 26.277-15.969 42.242-17.527zm-53.48 28.758 35.23 35.203 0.027344 0.027343c-1.2383 2.1914-2.2188 4.543-2.9219 7.0117h-49.863c1.5586-15.961 7.9062-30.5 17.527-42.242zm-17.523 58.117h49.867c0.69531 2.4766 1.6797 4.8203 2.9219 7.0117l-0.027343 0.027344-35.23 35.203c-9.6289-11.742-15.977-26.277-17.531-42.242zm71.004 71.008c-15.965-1.5586-30.504-7.9062-42.246-17.523l35.203-35.23 0.027343-0.027344c2.1914 1.2383 4.543 2.2188 7.0117 2.9219v49.859zm7.9297-64.66c-7.8672 0-14.281-6.4102-14.281-14.281 0-7.8672 6.4102-14.281 14.281-14.281 7.8672 0 14.281 6.4102 14.281 14.281 0.003906 7.8711-6.4023 14.281-14.281 14.281zm7.9375 64.66v-49.867c2.4766-0.69531 4.8203-1.6797 7.0117-2.9219l0.027344 0.027344 35.203 35.23c-11.742 9.6211-26.273 15.969-42.242 17.531zm53.484-28.762-35.23-35.195-0.027344-0.027343c1.2383-2.1914 2.2188-4.543 2.9219-7.0117h49.867c-1.5664 15.953-7.918 30.488-17.531 42.234zm-32.348-58.117c-0.69531-2.4766-1.6797-4.8203-2.9219-7.0117l0.027343-0.027344 35.23-35.203c9.6133 11.742 15.965 26.281 17.523 42.246h-49.859z"/>
  <!--<use x="70" y="644" xlink:href="#s"/>
  <use x="90.550781" y="644" xlink:href="#c"/>
  <use x="104.359375" y="644" xlink:href="#b"/>
  <use x="123.347656" y="644" xlink:href="#e"/>
  <use x="142.242188" y="644" xlink:href="#a"/>
  <use x="155.628906" y="644" xlink:href="#b"/>
  <use x="174.617188" y="644" xlink:href="#i"/>
  <use x="204.410156" y="644" xlink:href="#h"/>
  <use x="224.453125" y="644" xlink:href="#g"/>
  <use x="252.453125" y="644" xlink:href="#f"/>
  <use x="271.933594" y="644" xlink:href="#e"/>
  <use x="290.828125" y="644" xlink:href="#c"/>
  <use x="304.636719" y="644" xlink:href="#a"/>
  <use x="70" y="672" xlink:href="#r"/>
  <use x="82.183594" y="672" xlink:href="#c"/>
  <use x="95.992188" y="672" xlink:href="#d"/>
  <use x="115.226562" y="672" xlink:href="#q"/>
  <use x="154.152344" y="672" xlink:href="#a"/>
  <use x="167.535156" y="672" xlink:href="#p"/>
  <use x="187.46875" y="672" xlink:href="#b"/>
  <use x="216.207031" y="672" xlink:href="#o"/>
  <use x="239.640625" y="672" xlink:href="#d"/>
  <use x="258.878906" y="672" xlink:href="#n"/>
  <use x="278.8125" y="672" xlink:href="#m"/>
  <use x="308.492188" y="672" xlink:href="#l"/>
  <use x="329.015625" y="672" xlink:href="#c"/>
  <use x="342.820312" y="672" xlink:href="#d"/>
  <use x="362.058594" y="672" xlink:href="#k"/>
  <use x="371.65625" y="672" xlink:href="#b"/>
  <use x="390.648438" y="672" xlink:href="#j"/>
  <use x="407.242188" y="672" xlink:href="#a"/>-->
 </g>
</svg>
